<svg width="20" height="20" viewBox="0 0 20 20" fill="none" xmlns="http://www.w3.org/2000/svg">
<g id="arrows_icon">
<rect id="Rectangle" opacity="0.01" x="20" width="20" height="20" transform="rotate(90 20 0)" fill="white"/>
<path id="Shape" fill-rule="evenodd" clip-rule="evenodd" d="M10 5.49542C10.0002 5.76345 10.1588 6.00497 10.4018 6.10751C10.6448 6.21004 10.9245 6.15342 11.1107 5.96402L12.82 4.22225V14.3369C12.82 14.7031 13.1114 15 13.4708 15C13.8302 15 14.1216 14.7031 14.1216 14.3369V4.07637L15.8136 5.94192C15.9575 6.15439 16.2093 6.26244 16.4591 6.21886C16.7088 6.17527 16.911 5.98798 16.9773 5.73882C17.0436 5.48966 16.962 5.22393 16.7681 5.05777L14.165 2.18429C13.8181 1.93857 13.3578 1.93857 13.0109 2.18429L10.1909 5.05777C10.076 5.17433 10.0079 5.3304 10 5.49542Z" fill="#1A1A1A"/>
<path id="Shape_2" fill-rule="evenodd" clip-rule="evenodd" d="M6.39659 15.9872C6.60392 16.0282 6.81913 15.9695 6.97246 15.8301L9.78686 13.2467C9.96215 13.0949 10.0371 12.8641 9.98243 12.6443C9.92779 12.4244 9.75223 12.2504 9.5242 12.19C9.29616 12.1296 9.05175 12.1923 8.88625 12.3538L7.15431 13.9287V4.62003C7.15431 4.2776 6.86353 4 6.50484 4C6.14614 4 5.85536 4.2776 5.85536 4.62003L5.85536 14.0072L4.18404 12.267C4.04042 12.0683 3.78907 11.9673 3.53985 12.0081C3.29063 12.0488 3.08884 12.2239 3.02266 12.4569C2.95649 12.6899 3.03796 12.9383 3.23147 13.0937L5.82938 15.7805C5.96963 15.9366 6.18307 16.0143 6.39659 15.9872Z" fill="#1A1A1A"/>
</g>
</svg>
