<svg width="24" height="24" viewBox="0 0 24 24" fill="none" xmlns="http://www.w3.org/2000/svg">
<g id="back_icon">
<rect id="Rectangle" opacity="0.01" width="24" height="24" fill="white"/>
<g id="short_arrow_left">
<path id="Shape" d="M19 13.5C19.5523 13.5 20 13.0523 20 12.5C20 11.9477 19.5523 11.5 19 11.5V13.5ZM5 11.5C4.44772 11.5 4 11.9477 4 12.5C4 13.0523 4.44772 13.5 5 13.5V11.5ZM5.70711 11.7929C5.31658 11.4024 4.68342 11.4024 4.29289 11.7929C3.90237 12.1834 3.90237 12.8166 4.29289 13.2071L5.70711 11.7929ZM9.79289 18.7071C10.1834 19.0976 10.8166 19.0976 11.2071 18.7071C11.5976 18.3166 11.5976 17.6834 11.2071 17.2929L9.79289 18.7071ZM4.29289 11.7929C3.90237 12.1834 3.90237 12.8166 4.29289 13.2071C4.68342 13.5976 5.31658 13.5976 5.70711 13.2071L4.29289 11.7929ZM11.2071 7.70711C11.5976 7.31658 11.5976 6.68342 11.2071 6.29289C10.8166 5.90237 10.1834 5.90237 9.79289 6.29289L11.2071 7.70711ZM19 11.5H5V13.5H19V11.5ZM4.29289 13.2071L9.79289 18.7071L11.2071 17.2929L5.70711 11.7929L4.29289 13.2071ZM5.70711 13.2071L11.2071 7.70711L9.79289 6.29289L4.29289 11.7929L5.70711 13.2071Z" fill="black"/>
</g>
</g>
</svg>
