<svg width="24" height="24" viewBox="0 0 24 24" fill="none" xmlns="http://www.w3.org/2000/svg">
<g id="call_icon">
<rect id="Rectangle" opacity="0.01" width="24" height="24" fill="white"/>
<path id="Icon" fill-rule="evenodd" clip-rule="evenodd" d="M5.25806 5.55178C4.80649 5.55178 4.52018 5.90404 4.5551 6.24853C5.24487 13.2137 10.7863 18.7551 17.7515 19.4449C18.096 19.4798 18.4482 19.1935 18.4482 18.7419V15.9805C18.4482 15.6469 18.2348 15.3505 17.9175 15.245L15.2329 14.3496C14.9544 14.2573 14.6471 14.3294 14.4392 14.5374L14.0093 14.9672C13.4957 15.4809 12.6764 15.5794 12.0564 15.155C10.5884 14.151 9.73418 13.3022 8.8225 11.9304C8.41051 11.3097 8.51835 10.5043 9.02346 9.99997L9.46262 9.56082C9.67055 9.35288 9.74271 9.04562 9.6496 8.76708L8.755 6.08249C8.64948 5.76515 8.35309 5.55178 8.01946 5.55178H5.25806ZM3.01108 6.40216C2.87607 5.04125 3.99568 4 5.25806 4H8.01946C9.02113 4 9.9103 4.64089 10.2269 5.59135L11.1222 8.27594C11.4008 9.11235 11.1835 10.0349 10.5597 10.6579L10.1276 11.0901C10.9112 12.2663 11.6157 12.9724 12.9177 13.8647L13.3421 13.4403C13.9651 12.8165 14.8876 12.5992 15.7241 12.8778L18.4086 13.7731C19.3591 14.0897 20 14.9789 20 15.9805V18.7419C20 20.0043 18.9588 21.1239 17.5978 20.9889C9.89711 20.2262 3.77378 14.1029 3.01108 6.40216ZM13.7929 4.77589C13.7929 4.3476 14.1405 4 14.5688 4C17.5684 4 20 6.43164 20 9.43124C20 9.85953 19.6524 10.2071 19.2241 10.2071C18.7958 10.2071 18.4482 9.85953 18.4482 9.43124C18.4482 7.28901 16.711 5.55178 14.5688 5.55178C14.1405 5.55178 13.7929 5.20418 13.7929 4.77589ZM13.7929 7.87946C13.7929 7.45117 14.1405 7.10357 14.5688 7.10357C15.8544 7.10357 16.8964 8.14559 16.8964 9.43124C16.8964 9.85953 16.5488 10.2071 16.1205 10.2071C15.6922 10.2071 15.3447 9.85953 15.3447 9.43124C15.3447 9.00295 14.9971 8.65535 14.5688 8.65535C14.1405 8.65535 13.7929 8.30775 13.7929 7.87946Z" fill="black"/>
</g>
</svg>
