<svg width="20" height="20" viewBox="0 0 20 20" fill="none" xmlns="http://www.w3.org/2000/svg">
<g id="contacts_icon" opacity="0.297693">
<rect id="Rectangle" opacity="0.01" width="20" height="20" fill="white"/>
<path id="Icon" fill-rule="evenodd" clip-rule="evenodd" d="M9.97059 10.6941C10.4418 10.2865 10.8194 9.78265 11.0779 9.21618C11.3365 8.64971 11.4706 8.03471 11.4706 7.41176C11.4706 6.24176 11.0056 5.11941 10.1788 4.29176C9.35118 3.465 8.22882 3 7.05882 3C5.88882 3 4.76647 3.465 3.93882 4.29176C3.11206 5.11941 2.64706 6.24176 2.64706 7.41176C2.64706 8.03471 2.78118 8.64971 3.03971 9.21618C3.29824 9.78265 3.67588 10.2865 4.14706 10.6941C2.91176 11.2535 1.86353 12.1571 1.12853 13.2962C0.392647 14.4353 0.000882353 15.7615 0 17.1176C0 17.3515 0.0926471 17.5765 0.258529 17.7415C0.423529 17.9074 0.648529 18 0.882353 18C1.11618 18 1.34118 17.9074 1.50618 17.7415C1.67206 17.5765 1.76471 17.3515 1.76471 17.1176C1.76471 15.7138 2.32235 14.3674 3.315 13.3738C4.30853 12.3812 5.655 11.8235 7.05882 11.8235C8.46265 11.8235 9.80912 12.3812 10.8026 13.3738C11.7953 14.3674 12.3529 15.7138 12.3529 17.1176C12.3529 17.3515 12.4456 17.5765 12.6115 17.7415C12.7765 17.9074 13.0015 18 13.2353 18C13.4691 18 13.6941 17.9074 13.8591 17.7415C14.025 17.5765 14.1176 17.3515 14.1176 17.1176C14.1168 15.7615 13.725 14.4353 12.9891 13.2962C12.2541 12.1571 11.2059 11.2535 9.97059 10.6941ZM7.05882 10.0588C6.53559 10.0588 6.02382 9.90353 5.58794 9.61235C5.15294 9.32206 4.81324 8.90824 4.61294 8.42471C4.41265 7.94118 4.36059 7.40912 4.46294 6.89559C4.56441 6.38206 4.81676 5.91 5.18735 5.54029C5.55706 5.16971 6.02912 4.91735 6.54265 4.81588C7.05618 4.71353 7.58824 4.76559 8.07176 4.96588C8.55529 5.16618 8.96912 5.50588 9.25941 5.94088C9.55059 6.37676 9.70588 6.88853 9.70588 7.41176C9.70588 8.11412 9.42706 8.78735 8.93029 9.28324C8.43441 9.78 7.76118 10.0588 7.05882 10.0588ZM16.7153 8.07882C16.5865 8.91971 16.2176 9.705 15.6529 10.3412C16.8009 11.0585 17.7468 12.0582 18.3997 13.2441C19.0535 14.43 19.3924 15.7632 19.3853 17.1176C19.3853 17.3515 19.2926 17.5765 19.1268 17.7415C18.9618 17.9074 18.7368 18 18.5029 18C18.2691 18 18.0441 17.9074 17.8791 17.7415C17.7132 17.5765 17.6206 17.3515 17.6206 17.1176C17.6303 15.9406 17.3029 14.7856 16.6774 13.7876C16.0518 12.7906 15.1544 11.9929 14.0912 11.4882L13.9765 11.4265L13.6324 11.1971C13.5071 11.115 13.4047 11.0021 13.3359 10.8688C13.2662 10.7365 13.2318 10.5882 13.2353 10.4382C13.2388 10.2874 13.2821 10.14 13.3588 10.0103C13.4365 9.88059 13.5459 9.77294 13.6765 9.69706C14.0779 9.465 14.4115 9.13235 14.6435 8.73088C14.8756 8.33029 14.9991 7.875 15 7.41176C15 6.70941 14.7212 6.03618 14.2244 5.54029C13.7285 5.04353 13.0553 4.76471 12.3529 4.76471C12.1191 4.76471 11.8941 4.67206 11.7291 4.50618C11.5632 4.34118 11.4706 4.11618 11.4706 3.88235C11.4706 3.64853 11.5632 3.42353 11.7291 3.25853C11.8941 3.09265 12.1191 3 12.3529 3C13.2035 3 14.0356 3.24529 14.7494 3.70676C15.4641 4.16912 16.0297 4.82735 16.3782 5.60294C16.7268 6.37853 16.8441 7.23882 16.7153 8.07882Z" fill="#1A1A1A"/>
</g>
</svg>
