<svg width="24" height="24" viewBox="0 0 24 24" fill="none" xmlns="http://www.w3.org/2000/svg">
<g id="edit_icon">
<rect id="Rectangle" opacity="0.01" width="24" height="24" fill="white"/>
<g id="Icon">
<path id="Shape" d="M15.5903 4.90089L14.8832 4.19379L14.8832 4.19379L15.5903 4.90089ZM19.0536 8.40936L19.7514 9.12559L19.7514 9.12558L19.0536 8.40936ZM4.4933 15.9979L3.78619 15.2908L3.78617 15.2908L4.4933 15.9979ZM4 20H3C3 20.5523 3.44772 21 4 21V20ZM7.6484 19.5221L6.95054 18.8059L6.95053 18.8059L7.6484 19.5221ZM14.5317 7.37376L16.2974 5.60798L14.8832 4.19379L13.1175 5.95957L14.5317 7.37376ZM16.2974 5.60798C16.8695 5.03588 17.7971 5.03588 18.3692 5.60798L19.7834 4.19379C18.4303 2.84062 16.2363 2.84062 14.8832 4.19379L16.2974 5.60798ZM18.3692 5.60801C18.9466 6.18536 18.9405 7.12331 18.3557 7.69313L19.7514 9.12558C21.1346 7.77785 21.1491 5.55936 19.7834 4.19376L18.3692 5.60801ZM18.3557 7.69312L16.6354 9.36923L18.0312 10.8017L19.7514 9.12559L18.3557 7.69312ZM13.1175 5.95955L3.78619 15.2908L5.2004 16.705L14.5317 7.37377L13.1175 5.95955ZM3.78617 15.2908C3.28279 15.7942 3 16.4769 3 17.1889H5C5 17.0073 5.07209 16.8333 5.20042 16.705L3.78617 15.2908ZM3 17.1889V20H5V17.1889H3ZM4 21H6.47305V19H4V21ZM6.47305 21C7.17282 21 7.84499 20.7268 8.34627 20.2383L6.95053 18.8059C6.82281 18.9303 6.6515 19 6.47305 19V21ZM8.34627 20.2383L18.0312 10.8017L16.6354 9.36924L6.95054 18.8059L8.34627 20.2383ZM13.1267 7.38289L16.6354 10.8017L18.0312 9.36924L14.5225 5.95044L13.1267 7.38289Z" fill="#1A87DD"/>
</g>
</g>
</svg>
