<svg width="100" height="100" viewBox="0 0 100 100" fill="none" xmlns="http://www.w3.org/2000/svg">
<g id="empty_illustration">
<rect id="Rectangle" opacity="0.01" width="100" height="100" fill="white"/>
<g id="Illustration">
<ellipse id="oval" cx="50" cy="89.726" rx="41.0959" ry="3.42466" fill="#F2F2F2"/>
<g id="List">
<path id="Path" d="M39.9164 11.8668C40.0385 10.5692 39.6106 9.28012 38.74 8.32248C37.8693 7.36484 36.6383 6.82927 35.3552 6.84988H78.2074C79.4905 6.82927 80.7215 7.36484 81.5922 8.32248C82.4629 9.28012 82.8907 10.5692 82.7686 11.8668H39.9164Z" fill="#E7E7E7" stroke="#E7E7E7" stroke-linejoin="round"/>
<path id="Path_2" d="M35.3661 6.84988C32.5903 6.89329 30.2945 9.05816 30.0459 11.8668L25.6553 70.325C25.4084 73.133 23.1138 75.2983 20.3387 75.3419H63.191C65.9668 75.2985 68.2625 73.1336 68.5112 70.325L72.9017 11.8668C73.1486 9.05874 75.4432 6.89347 78.2183 6.84988L35.3661 6.84988Z" fill="white" stroke="#E7E7E7"/>
<path id="Path_3" d="M58.6261 70.325C58.504 71.6226 58.9319 72.9116 59.8026 73.8693C60.6732 74.8269 61.9042 75.3625 63.1873 75.3419H20.3351C19.052 75.3625 17.821 74.8269 16.9503 73.8693C16.0797 72.9116 15.6518 71.6226 15.7739 70.325H58.6261Z" fill="#E7E7E7"/>
<path id="Path_4" d="M33.5431 69.1703C33.7065 67.0345 33.0455 65.308 30.9465 65.308H63.9427C66.0417 65.308 67.6215 67.2595 66.5429 69.1703H33.5431Z" fill="#E0E0E0"/>
<path id="Path_5" d="M58.6261 70.325C58.8678 67.5125 61.1638 65.3411 63.9427 65.297H21.0905C18.3154 65.3405 16.0208 67.5058 15.7739 70.3139L58.6261 70.325Z" fill="#E7E7E7"/>
<rect id="Rectangle_2" x="30.7165" y="57.0584" width="33.8944" height="2.95113" rx="1.47556" fill="#E7E7E7"/>
<rect id="Rectangle_3" x="31.2007" y="50.6643" width="33.8944" height="2.95113" rx="1.47556" fill="#E7E7E7"/>
<rect id="Rectangle_4" x="31.6849" y="44.2702" width="33.8944" height="2.95113" rx="1.47556" fill="#E7E7E7"/>
<rect id="Rectangle_5" x="32.1691" y="37.8761" width="33.8944" height="2.95113" rx="1.47556" fill="#E7E7E7"/>
<rect id="Rectangle_6" x="32.6533" y="31.482" width="33.8944" height="2.95113" rx="1.47556" fill="#E7E7E7"/>
<rect id="Rectangle_7" x="33.1375" y="25.0879" width="33.8944" height="2.95113" rx="1.47556" fill="#E7E7E7"/>
<rect id="Rectangle_8" x="33.6217" y="18.6937" width="33.8944" height="2.95113" rx="1.47556" fill="#E7E7E7"/>
</g>
</g>
</g>
</svg>
