<svg width="24" height="24" viewBox="0 0 24 24" fill="none" xmlns="http://www.w3.org/2000/svg">
<g opacity="0.01">
<rect width="24" height="24" fill="#F7F9FC"/>
</g>
<path fill-rule="evenodd" clip-rule="evenodd" d="M12.0418 4.62876C7.99353 4.62876 4.71239 7.9099 4.71239 11.9582C4.71239 13.3638 5.10736 14.675 5.79226 15.7898L6.01295 16.149L4.63421 19.3658L7.85101 17.987L8.21097 18.2077C9.32504 18.8926 10.6362 19.2876 12.0418 19.2876C16.0901 19.2876 19.3712 16.0065 19.3712 11.9582C19.3712 7.9099 16.0901 4.62876 12.0418 4.62876ZM3.08363 11.9582C3.08363 7.01082 7.09445 3 12.0418 3C16.9892 3 21 7.01082 21 11.9582C21 16.9055 16.9892 20.9164 12.0418 20.9164C10.4798 20.9164 9.00906 20.5157 7.72885 19.8121L5.27594 20.8634C3.92407 21.4425 2.55754 20.0759 3.13656 18.7241L4.18793 16.2711C3.4843 14.9909 3.08363 13.5202 3.08363 11.9582ZM7.96991 10.3294C7.96991 9.87989 8.33475 9.51504 8.78429 9.51504H11.2274C11.677 9.51504 12.0418 9.87989 12.0418 10.3294C12.0418 10.779 11.677 11.1438 11.2274 11.1438H8.78429C8.33475 11.1438 7.96991 10.779 7.96991 10.3294ZM7.96991 13.5869C7.96991 13.1374 8.33475 12.7726 8.78429 12.7726H15.2993C15.7489 12.7726 16.1137 13.1374 16.1137 13.5869C16.1137 14.0365 15.7489 14.4013 15.2993 14.4013H8.78429C8.33475 14.4013 7.96991 14.0365 7.96991 13.5869Z" fill="black"/>
</svg>
