<svg width="24" height="24" viewBox="0 0 24 24" fill="none" xmlns="http://www.w3.org/2000/svg">
<g id="language_icon">
<rect id="Rectangle" opacity="0.01" width="24" height="24" fill="white"/>
<path id="Icon" fill-rule="evenodd" clip-rule="evenodd" d="M4.53675 11.25H8.262C8.3265 9.20025 8.6565 7.33275 9.174 5.91C9.30675 5.5455 9.4545 5.20125 9.61875 4.88625C6.8715 5.805 4.833 8.271 4.53675 11.25ZM12 3C7.02975 3 3 7.02975 3 12C3 16.9703 7.02975 21 12 21C16.9703 21 21 16.9703 21 12C21 7.02975 16.9703 3 12 3ZM12 4.5C11.8868 4.5 11.682 4.56075 11.4008 4.887C11.1225 5.211 10.8375 5.724 10.5833 6.42225C10.1355 7.65525 9.82725 9.342 9.76275 11.25H14.2373C14.1728 9.342 13.8645 7.65525 13.4167 6.42225C13.1625 5.724 12.8775 5.211 12.5992 4.887C12.318 4.56075 12.1132 4.5 12 4.5ZM15.738 11.25C15.6728 9.20025 15.3435 7.33275 14.826 5.91C14.6933 5.5455 14.5455 5.20125 14.3813 4.88625C17.1285 5.805 19.167 8.271 19.4632 11.25H15.738ZM14.2373 12.75H9.76275C9.82725 14.658 10.1355 16.3448 10.5833 17.5778C10.8375 18.276 11.1225 18.789 11.4008 19.113C11.682 19.4392 11.8868 19.5 12 19.5C12.1132 19.5 12.318 19.4392 12.5992 19.113C12.8775 18.789 13.1625 18.276 13.4167 17.5778C13.8645 16.3448 14.1728 14.658 14.2373 12.75ZM14.3813 19.1138C14.5455 18.7987 14.6933 18.4545 14.826 18.09C15.3435 16.6672 15.6728 14.7998 15.738 12.75H19.4632C19.167 15.729 17.1285 18.195 14.3813 19.1138ZM9.61875 19.1138C9.4545 18.7987 9.30675 18.4545 9.174 18.09C8.6565 16.6672 8.3265 14.7998 8.262 12.75H4.53675C4.833 15.729 6.8715 18.195 9.61875 19.1138Z" fill="black"/>
</g>
</svg>
