<svg width="24" height="24" viewBox="0 0 24 24" fill="none" xmlns="http://www.w3.org/2000/svg">
<g id="location_icon">
<rect id="Rectangle" opacity="0.01" width="24" height="24" fill="white"/>
<path id="Icon" fill-rule="evenodd" clip-rule="evenodd" d="M11.834 4.51867C8.89842 4.51867 6.51867 6.89538 6.51867 9.834C6.51867 11.9829 7.47619 14.0711 8.66227 15.81C9.81417 17.5109 11.1354 18.8169 11.834 19.4548C12.5326 18.8169 13.8538 17.5109 15.0057 15.81C16.1918 14.0711 17.1493 11.9829 17.1493 9.834C17.1493 6.89538 14.7696 4.51867 11.834 4.51867ZM5 9.834C5 6.06011 8.05935 3 11.834 3C15.6086 3 18.668 6.06011 18.668 9.834C18.668 12.4157 17.5282 14.8 16.2624 16.668C14.9898 18.536 13.5395 19.9559 12.8059 20.6241C12.2509 21.1253 11.4171 21.1253 10.8621 20.6241C10.1285 19.9559 8.67821 18.536 7.40557 16.668C6.13976 14.8 5 12.4157 5 9.834ZM11.834 8.31533C10.9957 8.31533 10.3153 8.99873 10.3153 9.834C10.3153 10.6693 10.9957 11.3527 11.834 11.3527C12.6723 11.3527 13.3527 10.6693 13.3527 9.834C13.3527 8.99873 12.6723 8.31533 11.834 8.31533ZM11.834 6.79667C13.5114 6.79667 14.8713 8.15587 14.8713 9.834C14.8713 11.5121 13.5114 12.8713 11.834 12.8713C10.1566 12.8713 8.79667 11.5121 8.79667 9.834C8.79667 8.15587 10.1566 6.79667 11.834 6.79667Z" fill="black"/>
</g>
</svg>
