<svg width="24" height="24" viewBox="0 0 24 24" fill="none" xmlns="http://www.w3.org/2000/svg">
<g id="logout_icon">
<rect id="Rectangle" opacity="0.01" width="24" height="24" fill="white"/>
<path id="Icon" fill-rule="evenodd" clip-rule="evenodd" d="M8.94548 8.96834C9.24674 8.66708 9.24674 8.17864 8.94548 7.87738C8.64422 7.57612 8.15578 7.57612 7.85451 7.87738L3.74023 11.9917C3.43897 12.2929 3.43897 12.7814 3.74023 13.0826L7.85451 17.1969C8.15578 17.4982 8.64422 17.4982 8.94548 17.1969C9.24674 16.8957 9.24674 16.4072 8.94548 16.1059L6.1481 13.3086H13.8514C14.1071 13.3086 14.3143 12.9632 14.3143 12.5371C14.3143 12.1111 14.1071 11.7657 13.8514 11.7657H6.1481L8.94548 8.96834ZM17.7886 5.02858H8.82857C8.44986 5.02858 8.14285 4.6832 8.14285 4.25715C8.14285 3.8311 8.44986 3.48572 8.82857 3.48572H17.7886C19.2643 3.48572 20.4857 4.73484 20.4857 6.31429V18.6571C20.4857 20.2366 19.2643 21.4857 17.7886 21.4857H8.82857C8.44986 21.4857 8.14285 21.1403 8.14285 20.7143C8.14285 20.2882 8.44986 19.9429 8.82857 19.9429H17.7886C18.5346 19.9429 19.1143 19.35 19.1143 18.6571V6.31429C19.1143 5.62148 18.5346 5.02858 17.7886 5.02858Z" fill="black"/>
</g>
</svg>
