<svg width="24" height="24" viewBox="0 0 24 24" fill="none" xmlns="http://www.w3.org/2000/svg">
<g id="notifications _icon">
<rect id="Rectangle" opacity="0.01" width="24" height="24" fill="white"/>
<g id="Icon">
<path id="Shape" fill-rule="evenodd" clip-rule="evenodd" d="M10.3483 18.4C9.90652 18.4 9.54834 18.7582 9.54834 19.2C9.54834 19.6419 9.90652 20 10.3483 20H13.5483C13.9902 20 14.3483 19.6419 14.3483 19.2C14.3483 18.7582 13.9902 18.4 13.5483 18.4H10.3483Z" fill="black"/>
<path id="Path" fill-rule="evenodd" clip-rule="evenodd" d="M7.14835 8.8C7.14835 6.14903 9.29739 4 11.9484 4C14.5993 4 16.7484 6.14866 16.7484 8.79962C16.7484 9.32291 16.7484 9.86146 16.7484 10.4C16.7484 12.3956 17.3706 14.3912 17.839 15.6106C18.0522 16.1658 17.6486 16.8 17.054 16.8H6.84278C6.24807 16.8 5.84447 16.1658 6.05771 15.6106C6.52611 14.3912 7.14835 12.3956 7.14835 10.4V8.8Z" stroke="black" stroke-width="1.5"/>
</g>
</g>
</svg>
