<svg width="24" height="24" viewBox="0 0 24 24" fill="none" xmlns="http://www.w3.org/2000/svg">
<g id="remove_icon">
<rect id="Rectangle" opacity="0.01" width="24" height="24" fill="white"/>
<path id="Icon" fill-rule="evenodd" clip-rule="evenodd" d="M11.75 4.5C11.336 4.5 11 4.836 11 5.25V6H14V5.25C14 4.836 13.664 4.5 13.25 4.5H11.75ZM15.5 6V5.25C15.5 4.00725 14.4928 3 13.25 3H11.75C10.5072 3 9.5 4.00725 9.5 5.25V6H5.75C5.336 6 5 6.336 5 6.75C5 7.164 5.336 7.5 5.75 7.5H5.82875L7.106 18.9983C7.23275 20.1383 8.19575 21 9.3425 21H15.6575C16.8043 21 17.7673 20.1383 17.8933 18.9983L19.1713 7.5H19.25C19.664 7.5 20 7.164 20 6.75C20 6.336 19.664 6 19.25 6H15.5ZM17.6623 7.5H7.33775L8.597 18.8325C8.63975 19.2128 8.96075 19.5 9.3425 19.5H15.6575C16.0392 19.5 16.3603 19.2128 16.403 18.8325L17.6623 7.5ZM11 9.75C11.414 9.75 11.75 10.086 11.75 10.5V16.5C11.75 16.914 11.414 17.25 11 17.25C10.586 17.25 10.25 16.914 10.25 16.5V10.5C10.25 10.086 10.586 9.75 11 9.75ZM14 9.75C14.414 9.75 14.75 10.086 14.75 10.5V16.5C14.75 16.914 14.414 17.25 14 17.25C13.586 17.25 13.25 16.914 13.25 16.5V10.5C13.25 10.086 13.586 9.75 14 9.75Z" fill="white"/>
</g>
</svg>
