<svg width="240" height="180" viewBox="0 0 240 180" fill="none" xmlns="http://www.w3.org/2000/svg">
<g id="remove_illustration">
<g id="freepik--background-complete--inject-34">
<rect id="Rectangle" y="158.181" width="240" height="0.120786" fill="#EBEBEB"/>
<rect id="Rectangle_2" x="25.1808" y="162.781" width="15.8976" height="0.120786" fill="#EBEBEB"/>
<rect id="Rectangle_3" x="82.1472" y="161.471" width="20.4144" height="0.120786" fill="#EBEBEB"/>
<rect id="Rectangle_4" x="44.8656" y="164.477" width="9.2112" height="0.120786" fill="#EBEBEB"/>
<rect id="Rectangle_5" x="208.642" y="166.458" width="7.3104" height="0.120786" fill="#EBEBEB"/>
<rect id="Rectangle_6" x="187.906" y="166.458" width="16.4592" height="0.120786" fill="#EBEBEB"/>
<rect id="Rectangle_7" x="147.84" y="162.979" width="11.4384" height="0.120786" fill="#EBEBEB"/>
<path id="Shape" fill-rule="evenodd" clip-rule="evenodd" d="M21.0816 136.633H113.76C115.274 136.633 116.501 135.398 116.501 133.874V2.75875C116.501 1.23513 115.274 2.07105e-09 113.76 2.07105e-09H21.0816C19.5772 -5.80528e-05 18.354 1.22042 18.3408 2.73459V133.874C18.3408 135.398 19.5679 136.633 21.0816 136.633ZM18.4608 2.73459C18.4634 1.27879 19.6353 0.0992877 21.0816 0.0966287H113.76C115.206 0.0992877 116.378 1.27879 116.381 2.73459V133.874C116.378 135.33 115.206 136.51 113.76 136.512H21.0816C19.6353 136.51 18.4634 135.33 18.4608 133.874V2.73459Z" fill="#EBEBEB"/>
<path id="Shape_2" fill-rule="evenodd" clip-rule="evenodd" d="M124.901 136.633H217.589C219.099 136.628 220.32 135.394 220.32 133.874V2.73459C220.307 1.22418 219.089 0.00523279 217.589 0H124.901C123.397 0.00256215 122.176 1.22152 122.16 2.73459V133.874C122.163 135.397 123.388 136.63 124.901 136.633ZM122.28 2.73459C122.283 1.27879 123.454 0.0992877 124.901 0.0966287H217.589C219.035 0.0992877 220.207 1.27879 220.21 2.73459V133.874C220.207 135.33 219.035 136.51 217.589 136.512H124.901C123.454 136.51 122.283 135.33 122.28 133.874V2.73459Z" fill="#EBEBEB"/>
<rect id="Rectangle_8" x="199.378" y="68.302" width="51.7776" height="52.2568" transform="rotate(180 199.378 68.302)" fill="#F0F0F0"/>
<rect id="Rectangle_9" x="146.707" y="16.05" width="0.8928" height="52.2568" fill="#E0E0E0"/>
<rect id="Rectangle_10" x="194.808" y="65.0022" width="42.6336" height="45.6571" transform="rotate(180 194.808 65.0022)" fill="#FAFAFA"/>
<path id="Path" d="M168.96 55.0784H182.462C185.39 55.0784 187.349 52.6917 186.835 49.7638L184.21 34.627C183.609 31.6113 181.024 29.4095 177.97 29.3124H164.501C161.573 29.3124 159.614 31.6991 160.128 34.627L162.754 49.7638C163.35 52.7685 165.918 54.9677 168.96 55.0784Z" fill="#F0F0F0"/>
<rect id="Rectangle_11" x="38.8656" y="84.1733" width="11.52" height="71.5294" fill="#F0F0F0"/>
<rect id="Rectangle_12" x="40.0416" y="155.708" width="60.8928" height="2.46886" fill="#F0F0F0"/>
<rect id="Rectangle_13" x="101.947" y="155.708" width="51.5616" height="71.5294" transform="rotate(180 101.947 155.708)" fill="#F5F5F5"/>
<rect id="Rectangle_14" x="99.8736" y="134.193" width="47.4144" height="12.7743" transform="rotate(180 99.8736 134.193)" fill="#F0F0F0"/>
<rect id="Rectangle_15" x="99.8736" y="150.91" width="47.4144" height="12.7743" transform="rotate(180 99.8736 150.91)" fill="#F0F0F0"/>
<rect id="Rectangle_16" x="57.504" y="120.636" width="37.3248" height="1.75381" rx="0.876906" fill="#F5F5F5"/>
<rect id="Rectangle_17" x="57.504" y="137.358" width="37.3248" height="1.75381" rx="0.876906" fill="#F5F5F5"/>
<rect id="Rectangle_18" x="99.8736" y="100.89" width="47.4144" height="12.7743" transform="rotate(180 99.8736 100.89)" fill="#F0F0F0"/>
<rect id="Rectangle_19" x="99.8736" y="117.481" width="47.4144" height="12.7743" transform="rotate(180 99.8736 117.481)" fill="#F0F0F0"/>
<rect id="Rectangle_20" x="57.504" y="87.3379" width="37.3248" height="1.75381" rx="0.876906" fill="#F5F5F5"/>
<rect id="Rectangle_21" x="57.504" y="103.919" width="37.3248" height="1.75381" rx="0.876906" fill="#F5F5F5"/>
<rect id="Rectangle_22" x="35.4192" y="12.1075" width="64.6608" height="57.1366" fill="#E6E6E6"/>
<path id="Path_2" d="M107.011 9.88513H31.2336C31.0635 9.88513 30.9003 9.95349 30.7805 10.075C30.6606 10.1966 30.5939 10.3613 30.5952 10.5325C30.5952 10.8874 30.881 11.1751 31.2336 11.1751H107.011C107.365 11.1751 107.652 10.8882 107.654 10.5325C107.654 10.175 107.366 9.88513 107.011 9.88513Z" fill="#E6E6E6"/>
<rect id="Rectangle_23" x="36.7008" y="12.1075" width="66.1248" height="57.1366" fill="#F0F0F0"/>
<path id="Path_3" d="M100.08 69.2441H35.4192V71.0753H101.971L100.08 69.2441Z" fill="#E6E6E6"/>
<path id="Path_4" d="M107.395 69.2441H41.2752L43.1616 71.0753H109.286L107.395 69.2441Z" fill="#F0F0F0"/>
<path id="Rectangle_24" d="M98.9856 15.9728V65.379H40.5456V15.9728L98.9856 15.9728Z" fill="#FAFAFA"/>
<path id="Path_5" d="M53.8128 65.379L76.3536 15.9728H87L64.4544 65.379H53.8128Z" fill="white"/>
<path id="Path_6" d="M66.7392 65.379L89.2848 15.9728H93.432L70.8912 65.379H66.7392Z" fill="white"/>
<path id="Rectangle_25" d="M98.9856 15.9728V65.379H98.496V15.9728H98.9856Z" fill="#E6E6E6"/>
<g id="Group" opacity="0.4">
<rect id="Rectangle_26" x="33.9792" y="8.73035" width="6.6096" height="47.15" fill="#F0F0F0"/>
<rect id="Rectangle_27" x="38.016" y="8.73035" width="5.1504" height="47.15" fill="#E6E6E6"/>
<rect id="Rectangle_28" x="40.5888" y="8.73035" width="6.6096" height="47.15" fill="#F0F0F0"/>
<rect id="Rectangle_29" x="44.6256" y="8.73035" width="5.1504" height="47.15" fill="#E6E6E6"/>
<rect id="Rectangle_30" x="47.1984" y="8.73035" width="6.6096" height="47.15" fill="#F0F0F0"/>
</g>
<g id="Group_2" opacity="0.4">
<rect id="Rectangle_31" x="92.7168" y="8.73035" width="3.8112" height="47.15" fill="#F0F0F0"/>
<rect id="Rectangle_32" x="95.04" y="8.73035" width="2.9664" height="47.15" fill="#E6E6E6"/>
<rect id="Rectangle_33" x="96.5232" y="8.73035" width="3.8112" height="47.15" fill="#F0F0F0"/>
<rect id="Rectangle_34" x="98.8512" y="8.73035" width="2.9664" height="47.15" fill="#E6E6E6"/>
<rect id="Rectangle_35" x="100.334" y="8.73035" width="3.8112" height="47.15" fill="#F0F0F0"/>
</g>
<path id="Path_7" d="M171.288 103.494C171.13 105.446 172.574 107.157 174.513 107.316C176.451 107.476 178.152 106.024 178.311 104.072C178.47 102.121 177.028 100.409 175.09 100.247C173.15 100.089 171.448 101.542 171.288 103.494Z" fill="#E0E0E0"/>
<ellipse id="Oval" cx="180.571" cy="105.629" rx="3.52849" ry="3.55062" transform="rotate(-8.37 180.571 105.629)" fill="#E0E0E0"/>
<path id="Path_8" d="M183.226 106.074C183.068 108.026 184.511 109.737 186.45 109.896C188.389 110.056 190.089 108.604 190.249 106.652C190.408 104.701 188.966 102.989 187.027 102.827C186.095 102.749 185.17 103.047 184.456 103.656C183.743 104.265 183.3 105.136 183.226 106.074Z" fill="#E0E0E0"/>
<path id="Path_9" d="M164.736 105.354C164.578 107.306 166.022 109.017 167.961 109.176C169.899 109.336 171.6 107.884 171.759 105.932C171.918 103.981 170.476 102.269 168.538 102.108C166.598 101.949 164.896 103.402 164.736 105.354Z" fill="#E0E0E0"/>
<ellipse id="Oval_2" cx="191.831" cy="105.626" rx="3.52849" ry="3.55062" transform="rotate(-8.37 191.831 105.626)" fill="#E0E0E0"/>
<ellipse id="Oval_3" cx="163.496" cy="102.642" rx="3.53796" ry="3.54154" transform="rotate(-40.5392 163.496 102.642)" fill="#E0E0E0"/>
<path id="Path_10" d="M155.002 104.548C154.844 106.499 156.287 108.21 158.226 108.37C160.165 108.529 161.865 107.077 162.025 105.125C162.184 103.174 160.742 101.462 158.803 101.301C156.863 101.142 155.162 102.595 155.002 104.548Z" fill="#E0E0E0"/>
<path id="Path_11" d="M150.974 105.504C150.974 105.504 151.579 120.032 174.773 120.032C197.966 120.032 198.571 105.504 198.571 105.504H150.974Z" fill="#F0F0F0"/>
<rect id="Rectangle_36" x="207.394" y="120.032" width="4.4112" height="38.1442" fill="#E6E6E6"/>
<rect id="Rectangle_37" x="210.384" y="120.032" width="2.5968" height="38.1442" fill="#F0F0F0"/>
<rect id="Rectangle_38" x="188.626" y="120.032" width="4.4112" height="38.1442" fill="#E6E6E6"/>
<rect id="Rectangle_39" x="191.266" y="120.032" width="2.5968" height="38.1442" fill="#F0F0F0"/>
<rect id="Rectangle_40" x="213.787" y="124.661" width="62.6208" height="4.62368" transform="rotate(180 213.787 124.661)" fill="#F0F0F0"/>
<rect id="Rectangle_41" x="127.618" y="120.032" width="4.4112" height="38.1442" fill="#E6E6E6"/>
<rect id="Rectangle_42" x="130.258" y="120.032" width="2.5968" height="38.1442" fill="#F0F0F0"/>
<rect id="Rectangle_43" x="149.28" y="124.661" width="22.4496" height="4.62368" transform="rotate(180 149.28 124.661)" fill="#E6E6E6"/>
<rect id="Rectangle_44" x="146.381" y="120.032" width="4.4112" height="38.1442" fill="#E6E6E6"/>
<rect id="Rectangle_45" x="149.376" y="120.032" width="2.5968" height="38.1442" fill="#F0F0F0"/>
</g>
<g id="freepik--Shadow--inject-34">
<ellipse id="freepik--path--inject-34" cx="120" cy="174.531" rx="93.0672" ry="5.46919" fill="#F5F5F5"/>
</g>
<g id="freepik--Trash--inject-34">
<path id="Path_12" d="M170.63 169.733C170.632 171.727 169.2 173.429 167.246 173.758C155.601 175.735 143.708 175.735 132.062 173.758C130.117 173.421 128.697 171.72 128.702 169.733V130.599H170.65L170.63 169.733Z" fill="#1A87DD"/>
<path id="Path_13" opacity="0.3" d="M128.678 131.304V136.797C131.203 137.739 139.493 138.43 149.654 138.43C159.816 138.43 168.12 137.739 170.63 136.797V131.304H128.678Z" fill="black"/>
<path id="Path_14" d="M171.418 135.493C171.418 136.734 161.894 137.739 149.654 137.739C137.414 137.739 127.891 136.734 127.891 135.493L127.493 130.613H171.84L171.418 135.493Z" fill="#1A87DD"/>
<ellipse id="Oval_4" cx="149.654" cy="130.613" rx="22.1616" ry="2.24179" fill="#1A87DD"/>
<ellipse id="Oval_5" opacity="0.3" cx="149.654" cy="130.613" rx="22.1616" ry="2.24179" fill="black"/>
<path id="Path_15" opacity="0.2" d="M134.304 166.979C133.406 166.977 132.679 166.245 132.677 165.341V142.904C132.679 142.001 133.406 141.269 134.304 141.266C135.2 141.272 135.926 142.002 135.931 142.904V165.341C135.926 166.244 135.2 166.974 134.304 166.979Z" fill="black"/>
<path id="Path_16" opacity="0.2" d="M165.01 166.979C164.112 166.977 163.385 166.245 163.382 165.341V142.904C163.385 142.001 164.112 141.269 165.01 141.266C165.906 141.272 166.632 142.002 166.637 142.904V165.341C166.632 166.244 165.906 166.974 165.01 166.979Z" fill="black"/>
<path id="Path_17" opacity="0.2" d="M154.771 166.979C153.875 166.974 153.149 166.244 153.144 165.341V142.904C153.149 142.002 153.875 141.272 154.771 141.266C155.669 141.269 156.396 142.001 156.398 142.904V165.341C156.396 166.245 155.669 166.977 154.771 166.979Z" fill="black"/>
<path id="Path_18" opacity="0.2" d="M144.538 166.979C143.641 166.974 142.916 166.244 142.91 165.341V142.904C142.916 142.002 143.641 141.272 144.538 141.266C145.435 141.269 146.162 142.001 146.165 142.904V165.341C146.162 166.245 145.435 166.977 144.538 166.979Z" fill="black"/>
</g>
<g id="freepik--Character--inject-34">
<path id="Path_19" d="M92.5824 40.6613C92.5824 41.5681 92.0398 42.3855 91.2075 42.7325C90.3753 43.0795 89.4173 42.8877 88.7803 42.2465C88.1434 41.6054 87.9528 40.6411 88.2975 39.8034C88.6423 38.9657 89.4544 38.4196 90.3552 38.4196C91.5852 38.4196 92.5824 39.4232 92.5824 40.6613Z" fill="#263238"/>
<path id="Path_20" d="M88.5648 40.985C88.5205 40.9862 88.4795 40.9618 88.4592 40.9222C88.0588 40.1817 88.0812 39.2824 88.5181 38.5631C88.955 37.8438 89.74 37.4138 90.5773 37.435C91.4147 37.4562 92.1772 37.9254 92.5776 38.6659C92.6069 38.7248 92.5859 38.7966 92.5296 38.8302C92.5016 38.8456 92.4686 38.8492 92.438 38.8401C92.4074 38.8311 92.3816 38.8101 92.3664 38.7818C91.811 37.7545 90.5334 37.3749 89.5128 37.9339C88.4922 38.4929 88.115 39.7789 88.6704 40.8062C88.6857 40.8344 88.6893 40.8676 88.6803 40.8984C88.6713 40.9292 88.6504 40.9552 88.6224 40.9705C88.6046 40.9797 88.5848 40.9847 88.5648 40.985Z" fill="#263238"/>
<path id="Path_21" d="M86.4 50.904C85.5153 50.9004 84.7077 50.3963 84.3112 49.6002C83.9147 48.8041 83.9967 47.8512 84.5232 47.1355C84.8949 46.6344 85.4491 46.3024 86.064 46.2127C86.0953 46.2071 86.1276 46.2149 86.153 46.2341C86.1785 46.2533 86.1949 46.2823 86.1984 46.3141C86.207 46.3793 86.1622 46.4395 86.0976 46.4494C84.9484 46.6189 84.1533 47.6939 84.3216 48.8506C84.4899 50.0074 85.558 50.8077 86.7072 50.6383C86.7735 50.6276 86.8358 50.673 86.8464 50.7397C86.857 50.8064 86.8119 50.8692 86.7456 50.8798C86.631 50.8951 86.5156 50.9032 86.4 50.904Z" fill="#263238"/>
<path id="Path_22" d="M98.5008 54.5565C98.0505 54.5558 97.6102 54.4232 97.2336 54.1748C97.178 54.1378 97.1611 54.0634 97.1952 54.0057C97.2334 53.9514 97.3071 53.9366 97.3632 53.9719C98.3374 54.6083 99.6397 54.3293 100.272 53.3486C100.904 52.368 100.627 51.0572 99.6528 50.4208C99.5972 50.3838 99.5803 50.3093 99.6144 50.2517C99.6526 50.1974 99.7263 50.1826 99.7824 50.2179C100.866 50.9279 101.175 52.3859 100.474 53.4791C100.138 54.0068 99.6048 54.3761 98.9952 54.5034C98.8326 54.5378 98.6669 54.5556 98.5008 54.5565Z" fill="#263238"/>
<ellipse id="Oval_6" cx="89.1072" cy="44.483" rx="3.1488" ry="3.16942" fill="#263238"/>
<circle id="Oval_7" cx="89.1097" cy="48.7495" r="4.1897" transform="rotate(-45 89.1097 48.7495)" fill="#263238"/>
<ellipse id="Oval_8" cx="89.5488" cy="54.0927" rx="4.6176" ry="4.64784" fill="#263238"/>
<ellipse id="Oval_9" cx="94.1684" cy="54.408" rx="4.64625" ry="4.6192" transform="rotate(-76.72 94.1684 54.408)" fill="#263238"/>
<path id="Path_23" d="M109.483 63.9972C109.483 64.374 109.483 64.8523 109.517 65.2872C109.55 65.722 109.55 66.1858 109.579 66.6351C109.642 67.5338 109.704 68.4421 109.8 69.3456C109.973 71.159 110.214 72.9643 110.525 74.7616C110.606 75.2061 110.678 75.6603 110.77 76.1048L110.981 77.2015C111.034 77.3754 110.981 77.3416 110.914 77.3368C110.846 77.3319 110.914 77.4237 111.197 77.4237C111.922 77.3506 112.627 77.146 113.28 76.8198C113.664 76.6459 114.058 76.4575 114.451 76.2545C114.845 76.0516 115.243 75.8197 115.603 75.6168L117.005 77.245C116.67 77.6305 116.315 77.9966 115.939 78.3417C115.57 78.696 115.178 79.0267 114.768 79.3322C114.338 79.6579 113.884 79.9503 113.41 80.2066C112.87 80.5031 112.292 80.7211 111.691 80.8541C111.321 80.9353 110.942 80.9678 110.563 80.9507C110.101 80.9237 109.648 80.809 109.229 80.6125C108.782 80.4016 108.385 80.0987 108.062 79.7235C107.785 79.3973 107.559 79.0308 107.39 78.6364C107.26 78.3347 107.154 78.0229 107.074 77.704L106.886 76.9986C106.752 76.5154 106.642 76.0564 106.526 75.583C106.077 73.6836 105.731 71.7611 105.49 69.8239C105.37 68.8576 105.274 67.8913 105.216 66.9009C105.187 66.4177 105.163 65.9346 105.149 65.4225C105.134 64.9103 105.149 64.4562 105.149 63.8812L109.483 63.9972Z" fill="#FFB573"/>
<path id="Path_24" d="M107.155 58.7889C111.25 61.9438 111.086 67.8913 111.086 67.8913L103.762 69.6548C103.762 69.6548 101.515 63.6735 102.427 61.4848C103.378 59.2044 104.851 57.0109 107.155 58.7889Z" fill="#1A87DD"/>
<path id="Path_25" opacity="0.7" d="M107.155 58.7889C111.25 61.9438 111.086 67.8913 111.086 67.8913L103.762 69.6548C103.762 69.6548 101.515 63.6735 102.427 61.4848C103.378 59.2044 104.851 57.0109 107.155 58.7889Z" fill="white"/>
<path id="Path_26" d="M115.33 76.1724L116.539 74.1239L119.573 77.39C119.573 77.39 117.398 78.7911 115.142 77.791L115.33 76.1724Z" fill="#FFB573"/>
<path id="Path_27" d="M118.032 73.1431L121.925 75.4525L119.573 77.3899L116.539 74.1238L118.032 73.1431Z" fill="#FFB573"/>
<path id="Path_28" d="M84.2352 170.965L88.4208 171.371L91.0224 161.5L86.832 161.094L84.2352 170.965Z" fill="#FFB573"/>
<path id="Path_29" d="M62.7792 162.67L66.5376 164.65L71.0064 155.732L67.248 153.751L62.7792 162.67Z" fill="#FFB573"/>
<path id="Path_30" d="M67.5408 162.916L64.1808 159.481C64.0651 159.356 63.8745 159.339 63.7392 159.442L60.6528 161.727C60.5014 161.85 60.4088 162.031 60.3978 162.227C60.3868 162.422 60.4585 162.613 60.5952 162.752C61.7856 163.931 62.4192 164.438 63.8976 165.95C64.8096 166.878 66.6816 169.066 67.9392 170.352C69.1968 171.637 70.5216 170.453 70.1136 169.806C68.28 166.907 67.9728 165.085 67.8576 163.612C67.8368 163.349 67.7246 163.103 67.5408 162.916Z" fill="#263238"/>
<path id="Path_31" d="M89.0736 170.091H84C83.8135 170.093 83.6509 170.219 83.6016 170.4L82.5168 174.415C82.4618 174.608 82.5015 174.817 82.6237 174.976C82.7459 175.135 82.9361 175.226 83.136 175.222C84.9168 175.222 85.7616 175.222 87.984 175.222H94.7856C96.6336 175.222 97.0224 173.342 96.2544 173.168C92.8272 172.405 90.8496 171.352 89.7936 170.347C89.5935 170.174 89.3368 170.083 89.0736 170.091Z" fill="#263238"/>
<path id="Path_32" opacity="0.2" d="M91.0176 161.505L89.6784 166.593H85.3824L86.8272 161.099L91.0176 161.505Z" fill="black"/>
<path id="Path_33" opacity="0.2" d="M67.2432 153.751L71.0064 155.736L68.7024 160.331L64.9392 158.345L67.2432 153.751Z" fill="black"/>
<path id="Path_34" d="M105.917 58.1801C105.917 58.1801 107.77 58.9966 101.558 83.7335L84.3072 82.231C85.2048 75.1916 85.584 70.8336 83.4768 56.0349C85.9361 55.745 88.4128 55.6336 90.888 55.7015C93.5119 55.7415 96.1297 55.9692 98.7216 56.3828C101.149 56.8591 103.55 57.459 105.917 58.1801Z" fill="#1A87DD"/>
<path id="Path_35" opacity="0.7" d="M105.917 58.1801C105.917 58.1801 107.77 58.9966 101.558 83.7335L84.3072 82.231C85.2048 75.1916 85.584 70.8336 83.4768 56.0349C85.9361 55.745 88.4128 55.6336 90.888 55.7015C93.5119 55.7415 96.1297 55.9692 98.7216 56.3828C101.149 56.8591 103.55 57.459 105.917 58.1801Z" fill="white"/>
<path id="Path_36" d="M90.888 55.5615C90.888 55.5615 89.928 55.5615 88.752 55.5615C88.056 56.6389 90.9936 59.7842 94.728 62.8763C95.6304 60.0596 97.0512 60.0693 97.0512 60.0693L90.888 55.5615Z" fill="white"/>
<path id="Path_37" d="M98.7168 56.3199C98.7168 56.3199 99.1536 56.3828 100.2 56.6243C100.891 57.7017 101.28 60.3977 99.24 62.7458C98.4384 59.8469 97.056 60.1078 97.056 60.1078L98.7168 56.3199Z" fill="white"/>
<path id="Path_38" d="M92.424 46.889C92.7024 49.469 92.7936 54.1362 90.888 55.7016C90.888 55.7016 92.9232 57.7984 97.0512 60.1078C100.046 58.0207 98.7216 56.3828 98.7216 56.3828C95.9664 55.4648 96.2208 53.3728 96.8784 51.4403L92.424 46.889Z" fill="#FFB573"/>
<path id="Path_39" opacity="0.2" d="M94.2432 48.7491L96.8784 51.4403C96.7167 51.8875 96.5946 52.3483 96.5136 52.8172C95.4576 52.5708 93.9216 51.4596 93.9024 50.3194C93.9208 49.7795 94.0363 49.2475 94.2432 48.7491V48.7491Z" fill="black"/>
<path id="Path_40" d="M102.322 38.4727C104.088 40.0477 104.606 43.8839 102.926 46.488C102.422 43.8482 102.219 41.1589 102.322 38.4727V38.4727Z" fill="#263238"/>
<path id="Path_41" d="M91.8864 41.473C91.5792 45.7198 91.3632 47.5122 93.1872 49.9618C95.9328 53.6482 101.184 53.0926 102.744 49.0245C104.15 45.3574 104.414 39.0282 100.541 36.7961C98.8099 35.7791 96.6782 35.7409 94.9124 36.6951C93.1466 37.6494 92.0006 39.4589 91.8864 41.473Z" fill="#FFB573"/>
<path id="Path_42" d="M91.3248 44.8937C94.4448 44.7729 96.1728 40.6662 95.3904 38.9317C98.928 40.7869 104.285 42.246 103.69 39.8593C102.888 36.6367 99.0144 34.2742 94.248 35.9942C91.488 37.202 89.1264 39.8593 91.3248 44.8937Z" fill="#263238"/>
<path id="Path_43" d="M90.3744 44.8888C90.5077 45.7008 90.9524 46.4278 91.6128 46.9131C92.496 47.5461 93.3024 46.8407 93.3648 45.8116C93.4224 44.8791 93.0336 43.4297 91.9968 43.2074C91.5355 43.1152 91.0592 43.2646 90.7315 43.6041C90.4038 43.9437 90.2694 44.4273 90.3744 44.8888Z" fill="#FFB573"/>
<path id="Path_44" d="M101.558 83.7336C101.558 83.7336 105.461 109.364 103.286 125.83C101.64 138.271 91.0176 165.114 91.0176 165.114L84.12 164.926C84.12 164.926 91.2432 138.909 92.7168 128.69C95.2368 111.191 88.9248 82.6514 88.9248 82.6514L101.558 83.7336Z" fill="#263238"/>
<path id="Path_45" opacity="0.2" d="M94.8288 88.9854L91.1472 94.8266C92.2558 101.752 92.9594 108.738 93.2544 115.747C98.4288 106.422 96 93.9182 94.8288 88.9854Z" fill="black"/>
<path id="Path_46" d="M92.0928 165.501L83.424 165.264L83.952 162.457L92.9088 162.51L92.0928 165.501Z" fill="#1A87DD"/>
<path id="Path_47" d="M97.7856 83.4582C97.7856 83.4582 94.9056 111.838 88.3248 127.279C83.0016 139.744 70.3104 159.684 70.3104 159.684L65.2416 156.698C65.2416 156.698 73.4016 134.527 77.4288 126.216C87.2544 105.842 78.1152 89.4975 84.3072 82.2504L97.7856 83.4582Z" fill="#263238"/>
<path id="Path_48" d="M70.8624 160.119L64.3968 156.548L65.448 153.765L72.336 157.679L70.8624 160.119Z" fill="#1A87DD"/>
<path id="Path_49" d="M84.1344 81.1922L83.2224 82.6803C83.1552 82.7914 83.2848 82.9315 83.4864 82.946L101.578 84.521C101.731 84.521 101.87 84.4679 101.885 84.3713L102.178 82.83C102.178 82.7237 102.067 82.6223 101.899 82.6078L84.4272 81.0859C84.318 81.0692 84.2079 81.1092 84.1344 81.1922Z" fill="#1A87DD"/>
<path id="Path_50" d="M86.3136 83.3616L85.8336 83.3229C85.7424 83.3229 85.6752 83.2601 85.6848 83.2021L86.0784 81.2019C86.0784 81.1391 86.1792 81.1005 86.2704 81.1101L86.7504 81.1488C86.8464 81.1488 86.9136 81.2116 86.8992 81.2696L86.5104 83.2698C86.4912 83.3277 86.4 83.3712 86.3136 83.3616Z" fill="#263238"/>
<path id="Path_51" d="M100.248 84.5742L99.768 84.5356C99.672 84.5356 99.6048 84.4727 99.6192 84.4148L100.013 82.4146C100.013 82.3566 100.109 82.3131 100.2 82.3228L100.68 82.3614C100.771 82.3614 100.838 82.4242 100.829 82.4822L100.435 84.4824C100.426 84.5501 100.32 84.5839 100.248 84.5742Z" fill="#263238"/>
<path id="Path_52" d="M93.2784 83.9703L92.7984 83.9268C92.7072 83.9268 92.64 83.864 92.6496 83.806L93.0432 81.8058C93.0432 81.7478 93.1392 81.7043 93.2352 81.714L93.7152 81.7575C93.8064 81.7575 93.8736 81.8203 93.864 81.8783L93.4704 83.8785C93.4608 83.9365 93.3744 83.9751 93.2784 83.9703Z" fill="#263238"/>
<path id="Path_53" d="M98.496 43.5843C98.448 43.9273 98.592 44.2317 98.8128 44.2607C99.0336 44.2897 99.2544 44.0384 99.2928 43.6954C99.3312 43.3524 99.192 43.048 98.9712 43.019C98.7504 42.99 98.5392 43.2412 98.496 43.5843Z" fill="#263238"/>
<path id="Path_54" d="M102.346 44.1061C102.302 44.4492 102.446 44.7535 102.667 44.7825C102.888 44.8115 103.109 44.5603 103.147 44.2173C103.186 43.8742 103.051 43.5698 102.83 43.5409C102.61 43.5119 102.394 43.7631 102.346 44.1061Z" fill="#263238"/>
<path id="Path_55" d="M102.72 43.5457L103.574 43.4201C103.574 43.4201 103.075 44.0047 102.72 43.5457Z" fill="#263238"/>
<path id="Path_56" d="M100.834 44.483C101.034 45.3057 101.344 46.0972 101.755 46.8359C101.371 47.0416 100.916 47.0663 100.512 46.9036L100.834 44.483Z" fill="#ED893E"/>
<path id="Path_57" d="M98.5152 47.9278C97.8401 47.7064 97.2738 47.2349 96.9312 46.6089C96.9134 46.5674 96.9301 46.5191 96.9696 46.4977C97.012 46.4767 97.0634 46.4939 97.0848 46.5364C97.5174 47.2998 98.286 47.8096 99.1536 47.9085C99.1987 47.9085 99.2352 47.9453 99.2352 47.9906C99.2352 48.036 99.1987 48.0728 99.1536 48.0728C98.9361 48.0486 98.7219 48 98.5152 47.9278Z" fill="#263238"/>
<path id="Path_58" d="M96.744 41.5986C96.7161 41.587 96.6914 41.5688 96.672 41.5455C96.64 41.5145 96.6219 41.4718 96.6219 41.4271C96.6219 41.3824 96.64 41.3397 96.672 41.3087C97.1494 40.879 97.8062 40.7128 98.4288 40.8642C98.4712 40.8765 98.5068 40.9055 98.5276 40.9446C98.5484 40.9838 98.5526 41.0297 98.5392 41.072C98.5136 41.1611 98.4215 41.2128 98.3328 41.1879C97.8205 41.0732 97.2847 41.2134 96.8928 41.5648C96.8505 41.5974 96.7961 41.6098 96.744 41.5986Z" fill="#263238"/>
<path id="Path_59" d="M103.963 42.6277C103.938 42.6179 103.915 42.6031 103.896 42.5842C103.555 42.1811 103.043 41.9658 102.518 42.0045C102.474 42.0144 102.428 42.0047 102.391 41.9779C102.354 41.9511 102.331 41.9098 102.326 41.8643C102.312 41.7723 102.374 41.6859 102.466 41.6711C103.101 41.6135 103.726 41.8691 104.141 42.3572C104.189 42.4145 104.193 42.4967 104.152 42.5592C104.111 42.6217 104.034 42.6496 103.963 42.6277Z" fill="#263238"/>
<path id="Path_60" d="M107.76 79.081C108.605 76.4297 110.792 74.4337 113.496 73.8451C116.2 73.2564 119.01 74.1643 120.869 76.227C122.727 78.2896 123.351 81.1935 122.506 83.8448L119.52 93.2467L104.774 88.4781L107.76 79.081Z" fill="#1A87DD"/>
<path id="Path_61" opacity="0.3" d="M107.76 79.081C108.605 76.4297 110.792 74.4337 113.496 73.8451C116.2 73.2564 119.01 74.1643 120.869 76.227C122.727 78.2896 123.351 81.1935 122.506 83.8448L119.52 93.2467L104.774 88.4781L107.76 79.081Z" fill="black"/>
<path id="Path_62" d="M93.2112 74.375L90.5136 82.83C90.4338 83.0754 90.4548 83.3427 90.5721 83.5723C90.6893 83.802 90.8929 83.9748 91.1376 84.0524L104.77 88.4587L107.765 79.076C109.073 74.9816 113.43 72.7284 117.499 74.0417L102.95 69.3358C98.8789 68.0256 94.5221 70.2799 93.2112 74.375Z" fill="#1A87DD"/>
<path id="Path_63" d="M100.526 80.7864L104.285 69.0122C104.311 68.9267 104.299 68.834 104.252 68.758C104.205 68.682 104.128 68.6302 104.04 68.616L100.2 68.0459L99.72 69.5726L102.518 70.4761L99.3504 80.3999L100.526 80.7864Z" fill="#263238"/>
<path id="Path_64" d="M98.5296 80.139C98.2873 80.9009 98.7041 81.7163 99.4607 81.9609C100.217 82.2055 101.028 81.7868 101.272 81.0254C101.515 80.264 101.1 79.4478 100.344 79.2017C99.9799 79.0833 99.584 79.1155 99.2435 79.2914C98.9031 79.4672 98.6462 79.7722 98.5296 80.139Z" fill="#263238"/>
<path id="Path_65" d="M105.48 89.8647L124.392 95.9765C124.531 96.022 124.682 96.0098 124.812 95.9427C124.941 95.8755 125.039 95.759 125.083 95.619C125.13 95.4793 125.118 95.3267 125.051 95.1957C124.985 95.0647 124.868 94.9664 124.728 94.9232L104.77 88.4733C104.584 89.055 104.902 89.6779 105.48 89.8647Z" fill="#1A87DD"/>
<path id="Path_66" opacity="0.2" d="M105.48 89.8647L113.208 92.3626C113.347 92.4082 113.499 92.3962 113.63 92.3291C113.76 92.262 113.859 92.1454 113.904 92.005C113.995 91.7143 113.837 91.4038 113.549 91.3093L104.77 88.4733C104.584 89.055 104.902 89.6779 105.48 89.8647Z" fill="black"/>
<path id="Path_67" d="M85.5072 62.8569L85.2432 63.1516L84.9456 63.4946C84.744 63.7265 84.5424 63.9778 84.3504 64.2145C83.9568 64.6977 83.5824 65.2146 83.232 65.7364C81.7817 67.8028 80.6399 70.0719 79.8432 72.4714C79.6512 73.0705 79.4736 73.6696 79.3344 74.2832C79.2864 74.462 79.2816 74.5345 79.2576 74.6166C79.2539 74.6874 79.2539 74.7584 79.2576 74.8292C79.2499 74.9047 79.2499 74.9808 79.2576 75.0563C79.2576 75.1432 79.4208 75.3462 79.8144 75.5394C80.2876 75.7537 80.786 75.9063 81.2976 75.9936C82.5322 76.1911 83.7823 76.2736 85.032 76.24C86.3376 76.24 87.6624 76.124 88.9872 75.9839C90.312 75.8438 91.656 75.6699 92.9568 75.4718L93.48 77.5638C90.8009 78.4415 88.0443 79.0579 85.248 79.4046C83.7758 79.5974 82.2871 79.6298 80.808 79.5012C79.9623 79.4213 79.1319 79.2229 78.3408 78.9118C77.8662 78.7202 77.4204 78.4633 77.016 78.1484C76.5397 77.7725 76.1473 77.3001 75.864 76.7618C75.3764 75.7519 75.246 74.6048 75.4944 73.5102C75.6096 72.771 75.7776 72.0608 75.9744 71.3167C76.3511 69.8885 76.8522 68.4965 77.472 67.1569C78.0934 65.8142 78.8172 64.5219 79.6368 63.2917C80.0496 62.6781 80.4912 62.0839 80.952 61.4993C81.1872 61.2094 81.432 60.9243 81.672 60.6393L82.0608 60.2189C82.2 60.0692 82.3104 59.9484 82.5024 59.7648L85.5072 62.8569Z" fill="#FFB573"/>
<path id="Path_68" d="M91.9104 75.9164L95.2704 74.1239L95.4192 77.7571C95.4192 77.7571 93.0192 78.7572 91.6464 77.6557L91.9104 75.9164Z" fill="#FFB573"/>
<path id="Path_69" d="M98.04 73.8485L97.536 77.1967L95.424 77.7571L95.2752 74.1239L98.04 73.8485Z" fill="#FFB573"/>
<path id="Path_70" d="M83.4768 56.0446C81.36 56.4214 78.3984 62.5284 78.3984 62.5284L83.7312 67.3598C83.7312 67.3598 87.9696 62.7023 87.744 59.929C87.552 57.5858 86.1696 55.5614 83.4768 56.0446Z" fill="#1A87DD"/>
<path id="Path_71" opacity="0.7" d="M83.4768 56.0446C81.36 56.4214 78.3984 62.5284 78.3984 62.5284L83.7312 67.3598C83.7312 67.3598 87.9696 62.7023 87.744 59.929C87.552 57.5858 86.1696 55.5614 83.4768 56.0446Z" fill="white"/>
<path id="Shape_3" fill-rule="evenodd" clip-rule="evenodd" d="M69.024 164.781C69.0798 164.788 69.1362 164.788 69.192 164.781C69.3237 164.735 69.4368 164.647 69.5136 164.53C69.5889 164.438 69.6107 164.313 69.5712 164.201C69.384 163.694 67.8912 163.356 67.7184 163.322C67.6853 163.312 67.65 163.326 67.632 163.356C67.6134 163.383 67.6134 163.42 67.632 163.447C67.9248 163.931 68.4912 164.752 69.024 164.781ZM69.0336 164.631C68.7312 164.612 68.3088 164.216 67.8816 163.554C68.4 163.679 69.2976 163.969 69.4128 164.278C69.4346 164.335 69.4215 164.399 69.3792 164.443C69.3049 164.562 69.1737 164.634 69.0336 164.631Z" fill="#1A87DD"/>
<path id="Shape_4" fill-rule="evenodd" clip-rule="evenodd" d="M67.68 163.656C68.1313 163.753 68.5958 163.731 69.0384 163.59C69.2431 163.541 69.4285 163.416 69.5664 163.234C69.6517 163.079 69.6358 162.878 69.528 162.744C69.4394 162.6 69.2968 162.513 69.144 162.51C68.5696 162.463 67.7608 163.34 67.6372 163.473C67.6296 163.482 67.6246 163.487 67.6224 163.489C67.6087 163.519 67.6087 163.554 67.6224 163.584C67.6293 163.618 67.6512 163.646 67.68 163.656ZM69.4464 163.122C69.2592 163.439 68.3616 163.578 67.8816 163.501C68.1312 163.239 68.736 162.672 69.1536 162.705C69.2574 162.707 69.3539 162.767 69.4128 162.866C69.4992 162.994 69.4752 163.072 69.4464 163.122Z" fill="#1A87DD"/>
<path id="Shape_5" fill-rule="evenodd" clip-rule="evenodd" d="M89.4864 170.687C89.9382 170.811 90.3999 170.879 90.864 170.892C91.2122 170.928 91.5613 170.837 91.8624 170.632C92.0154 170.501 92.1075 170.297 92.112 170.077C92.1227 169.96 92.0767 169.845 91.992 169.778C91.5312 169.401 89.6928 170.393 89.4864 170.51C89.454 170.523 89.4324 170.559 89.4324 170.598C89.4324 170.638 89.454 170.674 89.4864 170.687ZM91.7424 170.471C91.3248 170.831 90.3168 170.676 89.7744 170.56H89.76C90.5328 170.171 91.6176 169.734 91.8768 169.939C91.9143 169.965 91.9334 170.016 91.9248 170.066C91.9171 170.225 91.8507 170.372 91.7424 170.471Z" fill="#1A87DD"/>
<path id="Shape_6" fill-rule="evenodd" clip-rule="evenodd" d="M89.448 170.55C89.4653 170.554 89.4835 170.554 89.5008 170.55L89.544 170.564C90.096 170.332 91.2528 169.419 91.1904 168.936C91.176 168.834 91.1088 168.714 90.8592 168.68C89.856 168.564 89.4192 170.385 89.4192 170.463C89.4136 170.495 89.4245 170.527 89.448 170.55ZM89.6304 170.313C89.7552 169.888 90.1248 168.825 90.7584 168.825L90.8304 168.83C91.0176 168.849 91.0176 168.917 91.0176 168.941C91.0704 169.235 90.2304 169.994 89.6304 170.313Z" fill="#1A87DD"/>
<path id="Path_72" d="M98.88 43.0238L99.7296 42.8982C99.7296 42.8982 99.2256 43.4828 98.88 43.0238Z" fill="#263238"/>
</g>
<g id="freepik--E-mails--inject-34">
<path id="Path_73" d="M128.414 83.4438L109.829 87.309C109.168 87.4339 108.528 87.0049 108.389 86.3427L107.52 82.2843L107.208 80.7865L107.755 79.0762C107.831 78.8307 107.923 78.5903 108.029 78.3563C108.041 78.3192 108.057 78.2835 108.077 78.25C108.383 77.5462 108.796 76.8943 109.301 76.3174L110.261 76.1145L126.197 72.7857C126.858 72.6607 127.497 73.0897 127.637 73.752L129.331 81.9654C129.476 82.6271 129.068 83.2836 128.414 83.4438Z" fill="#1A87DD"/>
<path id="Path_74" opacity="0.3" d="M127.493 73.3171L118.526 82.4968L116.606 81.7141L109.138 78.6655L108.086 78.2355C108.393 77.5316 108.806 76.8797 109.31 76.3029L110.27 76.1L126.206 72.7711C126.706 72.6707 127.216 72.8871 127.493 73.3171Z" fill="black"/>
<path id="Path_75" d="M127.493 73.3171L116.606 81.7287L115.896 82.2794L109.056 78.8636L108.038 78.3805C108.05 78.3433 108.066 78.3077 108.086 78.2742C108.393 77.5703 108.806 76.9184 109.31 76.3416L110.27 76.1387L126.206 72.8098C126.698 72.7015 127.205 72.9017 127.493 73.3171Z" fill="#1A87DD"/>
<path id="Path_76" opacity="0.2" d="M127.493 73.3171L116.606 81.7287L115.896 82.2794L109.056 78.8636L108.038 78.3805C108.05 78.3433 108.066 78.3077 108.086 78.2742C108.393 77.5703 108.806 76.9184 109.31 76.3416L110.27 76.1387L126.206 72.8098C126.698 72.7015 127.205 72.9017 127.493 73.3171Z" fill="white"/>
<path id="Path_77" d="M151.104 100.388L145.44 106.533C144.975 107.032 144.197 107.06 143.698 106.596L129.806 93.5753C129.308 93.1082 129.28 92.3233 129.744 91.8215L135.427 85.6759C135.65 85.4326 135.959 85.289 136.288 85.2772C136.616 85.2654 136.935 85.3863 137.174 85.6131L151.061 98.6338C151.429 98.9786 151.552 99.5138 151.373 99.9866C151.313 100.138 151.221 100.275 151.104 100.388Z" fill="#1A87DD"/>
<path id="Path_78" opacity="0.3" d="M151.354 100.011L138.72 97.9381L135.787 85.3763C136.245 85.1641 136.785 85.2499 137.155 85.5937L151.042 98.6145C151.428 98.9667 151.553 99.5257 151.354 100.011Z" fill="black"/>
<path id="Path_79" d="M151.354 100.011L139.051 96.3195L135.787 85.4198C136.245 85.2076 136.785 85.2933 137.155 85.6372L151.042 98.6579C151.41 99.0027 151.533 99.5379 151.354 100.011Z" fill="#1A87DD"/>
<path id="Path_80" opacity="0.2" d="M151.354 100.011L139.051 96.3195L135.787 85.4198C136.245 85.2076 136.785 85.2933 137.155 85.6372L151.042 98.6579C151.41 99.0027 151.533 99.5379 151.354 100.011Z" fill="white"/>
<path id="Path_81" d="M156.043 110.509L162.283 117.844C162.524 118.127 162.639 118.498 162.6 118.869C162.561 119.24 162.371 119.579 162.077 119.805L148.522 130.434C148.05 130.72 147.439 130.599 147.11 130.154L142.229 124.55C142.137 124.442 142.061 124.322 142.003 124.192C141.818 123.829 141.861 123.391 142.114 123.071L154.114 110.456C154.498 110.037 155.11 109.92 155.621 110.166C155.782 110.253 155.925 110.369 156.043 110.509Z" fill="#1A87DD"/>
<path id="Path_82" opacity="0.3" d="M155.621 110.181L152.64 123.525L142.022 124.207C141.837 123.844 141.88 123.405 142.133 123.086L154.133 110.471C154.514 110.061 155.115 109.944 155.621 110.181Z" fill="black"/>
<path id="Path_83" d="M155.621 110.181L150.624 124.342L142.013 124.207C141.828 123.844 141.871 123.405 142.123 123.086L154.123 110.471C154.506 110.056 155.112 109.939 155.621 110.181Z" fill="#1A87DD"/>
<path id="Path_84" opacity="0.2" d="M155.621 110.181L150.624 124.342L142.013 124.207C141.828 123.844 141.871 123.405 142.123 123.086L154.123 110.471C154.506 110.056 155.112 109.939 155.621 110.181Z" fill="white"/>
</g>
</g>
</svg>
