<svg width="21" height="21" viewBox="0 0 21 21" fill="none" xmlns="http://www.w3.org/2000/svg">
<g id="request_icon">
<rect id="Rectangle" opacity="0.01" x="21" width="21" height="21" transform="rotate(90 21 0)" fill="white"/>
<path id="Path" d="M11.7662 15.8955L16.5192 6.01185C16.7195 5.59547 16.6314 5.12506 16.2894 4.78424C15.9474 4.44341 15.4204 4.30086 14.9142 4.41226L10.9159 5.29199V9.59926C10.9159 9.79746 10.7297 9.95817 10.5 9.95817C10.2703 9.95817 10.084 9.79748 10.084 9.59926V5.29199L6.08579 4.41226C5.57952 4.30086 5.05256 4.44339 4.71058 4.78424C4.36794 5.12575 4.28093 5.59621 4.4808 6.01187L9.23375 15.8955C9.45015 16.3455 9.93534 16.625 10.5 16.625C11.0646 16.625 11.5499 16.3455 11.7662 15.8955Z" fill="white"/>
</g>
</svg>
