<svg width="21" height="21" viewBox="0 0 21 21" fill="none" xmlns="http://www.w3.org/2000/svg">
<g id="send_icon">
<rect id="Rectangle" opacity="0.01" y="21" width="21" height="21" transform="rotate(-90 0 21)" fill="white"/>
<path id="Path" d="M9.23378 5.10455L4.4808 14.9882C4.28054 15.4045 4.36864 15.8749 4.71059 16.2158C5.05259 16.5566 5.57955 16.6991 6.08579 16.5877L10.0841 15.708V11.4007C10.0841 11.2025 10.2703 11.0418 10.5 11.0418C10.7297 11.0418 10.916 11.2025 10.916 11.4007V15.708L14.9142 16.5877C15.4205 16.6991 15.9474 16.5566 16.2894 16.2158C16.6321 15.8742 16.7191 15.4038 16.5192 14.9881L11.7662 5.10452C11.5499 4.65452 11.0647 4.375 10.5 4.375C9.93537 4.375 9.45015 4.65452 9.23378 5.10455Z" fill="#1A1A1A"/>
</g>
</svg>
