<svg width="240" height="180" viewBox="0 0 240 180" fill="none" xmlns="http://www.w3.org/2000/svg">
<g id="sent_illustration">
<g id="freepik--background-complete--inject-128">
<rect id="Rectangle" y="158.181" width="240" height="0.120786" fill="#E0E0E0"/>
<rect id="Rectangle_2" x="164.765" y="163.298" width="16.512" height="0.120786" fill="#E0E0E0"/>
<rect id="Rectangle_3" x="44.0064" y="163.356" width="9.2928" height="0.120786" fill="#E0E0E0"/>
<rect id="Rectangle_4" x="101.645" y="163.076" width="18.8352" height="0.120786" fill="#E0E0E0"/>
<rect id="Rectangle_5" x="92.7456" y="161.355" width="8.4192" height="0.120786" fill="#E0E0E0"/>
<rect id="Rectangle_6" x="178.354" y="161.418" width="25.4352" height="0.120786" fill="#E0E0E0"/>
<path id="Shape" fill-rule="evenodd" clip-rule="evenodd" d="M21.0768 136.633H113.76C115.274 136.633 116.501 135.398 116.501 133.874V2.75875C116.501 1.23513 115.274 0 113.76 0H21.0768C19.5743 0.00259064 18.354 1.2223 18.3408 2.73459V133.874C18.3408 135.396 19.565 136.63 21.0768 136.633ZM18.4608 2.73459C18.4608 1.27957 19.6313 0.0992936 21.0768 0.0966287H113.76C115.206 0.0992877 116.378 1.27879 116.381 2.73459V133.874C116.378 135.33 115.206 136.51 113.76 136.512H21.0768C19.6313 136.51 18.4608 135.329 18.4608 133.874V2.73459Z" fill="#E0E0E0"/>
<path id="Shape_2" fill-rule="evenodd" clip-rule="evenodd" d="M124.901 136.633H217.589C219.099 136.628 220.32 135.394 220.32 133.874V2.73459C220.307 1.22418 219.089 0.00523279 217.589 0H124.901C123.398 0.00256215 122.176 1.22152 122.16 2.73459V133.874C122.163 135.397 123.388 136.63 124.901 136.633ZM122.28 2.73459C122.283 1.27879 123.455 0.0992877 124.901 0.0966287H217.589C219.035 0.0992877 220.207 1.27879 220.21 2.73459V133.874C220.207 135.33 219.035 136.51 217.589 136.512H124.901C123.455 136.51 122.283 135.33 122.28 133.874V2.73459Z" fill="#E0E0E0"/>
<path id="Path" d="M210.869 97.7061C204.965 88.6569 210.355 78.9312 209.458 68.8625C208.56 58.7937 199.056 56.6003 200.856 48.0873C202.939 38.1925 197.386 28.6987 191.093 28.6987C184.8 28.6987 179.251 38.1683 181.334 48.0728C183.134 56.6003 173.654 58.7986 172.733 68.848C171.811 78.8974 177.226 88.6569 171.317 97.6916C165.408 106.726 166.963 118.723 170.29 124.67C171.174 126.248 172.241 127.716 173.467 129.043C178.024 133.967 184.409 136.764 191.095 136.764C197.781 136.764 204.166 133.967 208.723 129.043C209.946 127.715 211.011 126.247 211.896 124.67C215.227 118.737 216.778 106.775 210.869 97.7061Z" fill="#E0E0E0"/>
<path id="Path_2" d="M191.093 104.572V104.572C191.885 104.572 192.644 104.888 193.204 105.452C193.764 106.015 194.078 106.78 194.078 107.577V158.181H188.107V107.577C188.107 106.78 188.422 106.015 188.982 105.452C189.542 104.888 190.301 104.572 191.093 104.572Z" fill="#F0F0F0"/>
<path id="Path_3" d="M153.557 158.181H145.44V107.582C145.445 105.324 147.262 103.495 149.506 103.489V103.489C151.749 103.495 153.566 105.324 153.571 107.582L153.557 158.181Z" fill="#E0E0E0"/>
<ellipse id="Oval" cx="149.491" cy="119.327" rx="25.0416" ry="25.2056" fill="#F0F0F0"/>
<ellipse id="Oval_2" cx="169.339" cy="109.369" rx="9.92969" ry="9.87257" transform="rotate(-76.05 169.339 109.369)" fill="#F0F0F0"/>
<ellipse id="Oval_3" cx="129.235" cy="103.486" rx="5.87887" ry="5.84259" transform="rotate(-80.75 129.235 103.486)" fill="#F0F0F0"/>
<ellipse id="Oval_4" cx="135.59" cy="100.446" rx="4.0992" ry="4.12605" fill="#F0F0F0"/>
<path id="Path_4" d="M97.92 127.98C94.026 128.564 90.3048 129.993 87.0144 132.169C86.9856 128.342 86.2896 124.714 84.504 121.781C81.7872 124.443 79.584 127.893 77.784 131.603C77.1264 124.651 75.3072 117.887 71.28 113.602C65.2464 117.423 62.136 123.791 60.6576 130.536C58.2152 125.988 54.6702 122.136 50.352 119.336C46.6608 123.25 45.48 128.661 45.5808 134.208C41.3856 129.289 36.7296 125.453 32.1888 125.004C31.0704 132.778 33.4512 140.112 36.48 145.909C40.4875 153.49 48.3343 158.216 56.8656 158.186H76.5888C84.9936 158.186 92.8752 153.673 96.816 146.199C99.3072 141.464 100.498 135.372 97.92 127.98Z" fill="#E0E0E0"/>
<path id="Path_5" d="M92.2848 27.6068C94.7184 20.4225 92.7648 15.306 86.8272 15.306C83.0928 15.306 78.4608 17.3207 73.9488 20.5964C73.44 18.7267 72.0048 17.6106 69.696 17.6106C65.6304 17.6106 60.0288 21.0699 55.6368 25.9497C54.4002 24.7671 52.7632 24.1022 51.0576 24.0896C47.1648 23.8673 42.456 25.8579 38.3616 29.0901C37.9453 28.5036 37.2729 28.1562 36.5568 28.1576C34.3152 28.032 31.2768 30.0419 29.7744 32.6412C29.6832 32.8006 29.6016 32.9601 29.5152 33.1243H93.4656C93.6576 30.8536 93.2592 28.9596 92.2848 27.6068Z" fill="#F0F0F0"/>
<path id="Path_6" d="M92.4816 71.2299C93.672 67.7222 92.7264 65.2244 89.8176 65.2244C87.9888 65.2244 85.728 66.1907 83.5248 67.8092C83.2796 66.8779 82.3988 66.2636 81.4464 66.3598C79.464 66.3598 76.728 68.0508 74.5776 70.4375C73.9748 69.858 73.1743 69.5329 72.3408 69.5292C70.4208 69.4181 68.1408 70.3892 66.1392 71.9691C65.9423 71.6857 65.6234 71.5135 65.28 71.5053C64.1856 71.4425 62.7024 72.4232 61.968 73.6939L61.8384 73.9258H93.0768C93.2074 72.9843 92.996 72.0271 92.4816 71.2299V71.2299Z" fill="#F0F0F0"/>
<path id="Path_7" d="M164.53 44.6859C164.283 44.6511 164.034 44.6333 163.786 44.6328C164.016 41.13 162.686 38.8882 159.84 38.8882C157.79 38.8882 155.27 40.0574 152.707 42.0335C153.442 35.2308 151.09 30.8101 145.762 30.8101C141.47 30.8101 136.032 33.7089 130.661 38.3761C130.181 35.7091 128.606 34.1051 125.947 34.1051C121.277 34.1051 114.638 39.0525 109.315 46.0291V46.0291C108.087 44.3997 106.191 43.4175 104.16 43.3573C99.7152 43.0433 94.1904 45.8841 89.28 50.5127C88.9154 49.7162 88.1302 49.2 87.2592 49.184C84.8256 49.0101 81.4992 51.5659 79.5264 54.9817H168.442C170.53 49.8024 168.869 45.2705 164.53 44.6859Z" fill="#F0F0F0"/>
</g>
<g id="freepik--Shadow--inject-128">
<ellipse id="Oval_5" cx="120" cy="174.531" rx="93.0672" ry="5.46919" fill="#F5F5F5"/>
</g>
<g id="freepik--Mail--inject-128">
<path id="Path_8" d="M23.4528 46.1692L132.878 62.026L147.562 76.9406L23.4528 46.1692V46.1692Z" fill="#1A87DD"/>
<path id="Path_9" opacity="0.6" d="M23.4528 46.1692L132.878 62.026L147.562 76.9406L23.4528 46.1692V46.1692Z" fill="white"/>
<path id="Path_10" d="M23.4528 46.1692L132.878 62.026L127.8 83.5935L23.4528 46.1692V46.1692Z" fill="#1A87DD"/>
<path id="Path_11" opacity="0.2" d="M23.4528 46.1692L132.878 62.026L127.8 83.5935L23.4528 46.1692V46.1692Z" fill="black"/>
<path id="Path_12" d="M125.554 21.2004L131.904 51.1553C132.248 52.7839 131.217 54.3855 129.6 54.7354L72.9216 66.9106C71.3041 67.254 69.7148 66.2177 69.3648 64.5915L63.0096 34.6366C62.6687 33.0069 63.7008 31.4065 65.3184 31.0565L121.997 18.8813C123.616 18.5381 125.206 19.577 125.554 21.2052V21.2004Z" fill="#1A87DD"/>
<path id="Path_13" opacity="0.4" d="M125.554 21.2004L131.904 51.1553C132.248 52.7839 131.217 54.3855 129.6 54.7354L72.9216 66.9106C71.3041 67.254 69.7148 66.2177 69.3648 64.5915L63.0096 34.6366C62.6687 33.0069 63.7008 31.4065 65.3184 31.0565L121.997 18.8813C123.616 18.5381 125.206 19.577 125.554 21.2052V21.2004Z" fill="black"/>
<path id="Path_14" d="M124.157 19.2388L105.221 42.6374C101.603 47.1066 95.3845 48.4428 90.2688 45.8503L63.4896 32.274C63.9229 31.6476 64.5767 31.2106 65.3184 31.0517L121.997 18.8764C122.736 18.718 123.508 18.8475 124.157 19.2388V19.2388Z" fill="#1A87DD"/>
<path id="Path_15" d="M23.4528 46.1692L113.707 67.7609L127.8 83.5935L23.4528 46.1692V46.1692Z" fill="#1A87DD"/>
<path id="Path_16" opacity="0.6" d="M23.4528 46.1692L113.707 67.7609L127.8 83.5935L23.4528 46.1692V46.1692Z" fill="white"/>
<path id="Rectangle_7" d="M56.133 67.3976L56.3756 66.9807L66.4193 72.9025L66.1767 73.3193L56.133 67.3976Z" fill="#1A87DD"/>
<path id="Rectangle_8" d="M70.611 75.9301L70.8536 75.5132L74.4653 77.6426L74.2227 78.0595L70.611 75.9301Z" fill="#1A87DD"/>
<path id="Path_17" d="M23.4528 46.1692L113.707 67.7609L96.1632 89.0434L23.4528 46.1692V46.1692Z" fill="#1A87DD"/>
<path id="Path_18" d="M144.173 96.7544C144.051 96.7547 143.931 96.7317 143.818 96.6867L129.12 90.831C128.631 90.6326 128.392 90.0736 128.586 89.5796C128.78 89.0856 129.334 88.8418 129.826 89.0337L144.528 94.8894C144.957 95.0601 145.205 95.5139 145.118 95.97C145.031 96.4261 144.634 96.7555 144.173 96.7544V96.7544Z" fill="#1A87DD"/>
<path id="Path_19" opacity="0.3" d="M144.173 96.7544C144.051 96.7547 143.931 96.7317 143.818 96.6867L129.12 90.831C128.631 90.6326 128.392 90.0736 128.586 89.5796C128.78 89.0856 129.334 88.8418 129.826 89.0337L144.528 94.8894C144.957 95.0601 145.205 95.5139 145.118 95.97C145.031 96.4261 144.634 96.7555 144.173 96.7544V96.7544Z" fill="black"/>
<path id="Path_20" d="M143.304 88.2704C143.184 88.2696 143.065 88.245 142.954 88.1979L135.058 85.0333C134.736 84.908 134.507 84.6191 134.455 84.2762C134.404 83.9333 134.539 83.5891 134.809 83.3741C135.08 83.1592 135.444 83.1065 135.763 83.236L143.659 86.3861C144.152 86.5813 144.395 87.1412 144.202 87.6375C144.063 88.0165 143.705 88.2689 143.304 88.2704Z" fill="#1A87DD"/>
<path id="Path_21" opacity="0.5" d="M143.304 88.2704C143.184 88.2696 143.065 88.245 142.954 88.1979L135.058 85.0333C134.736 84.908 134.507 84.6191 134.455 84.2762C134.404 83.9333 134.539 83.5891 134.809 83.3741C135.08 83.1592 135.444 83.1065 135.763 83.236L143.659 86.3861C144.152 86.5813 144.395 87.1412 144.202 87.6375C144.063 88.0165 143.705 88.2689 143.304 88.2704Z" fill="white"/>
<path id="Path_22" d="M126.797 96.6288C126.677 96.6274 126.558 96.6045 126.446 96.5611L112.109 90.831C111.788 90.7057 111.558 90.4168 111.506 90.0739C111.455 89.7311 111.59 89.3868 111.861 89.1718C112.131 88.9569 112.495 88.9042 112.814 89.0337L127.152 94.7445C127.581 94.9152 127.829 95.369 127.742 95.8251C127.655 96.2812 127.258 96.6106 126.797 96.6094V96.6288Z" fill="#1A87DD"/>
<path id="Path_23" opacity="0.3" d="M126.797 96.6288C126.677 96.6274 126.558 96.6045 126.446 96.5611L112.109 90.831C111.788 90.7057 111.558 90.4168 111.506 90.0739C111.455 89.7311 111.59 89.3868 111.861 89.1718C112.131 88.9569 112.495 88.9042 112.814 89.0337L127.152 94.7445C127.581 94.9152 127.829 95.369 127.742 95.8251C127.655 96.2812 127.258 96.6106 126.797 96.6094V96.6288Z" fill="black"/>
</g>
<g id="freepik--Character--inject-128">
<path id="Path_24" d="M178.704 53.0588C179.976 55.5567 181.142 58.0594 182.251 60.62C183.36 63.1807 184.392 65.7752 185.294 68.4953L185.621 69.5244C185.678 69.708 185.76 70.0075 185.808 70.2201C185.856 70.4327 185.899 70.6743 185.923 70.8772C186.033 71.6566 186.089 72.4428 186.091 73.2301C186.098 74.682 186.031 76.1334 185.89 77.5784C185.622 80.3756 185.186 83.1539 184.584 85.8981L181.949 85.6034C181.915 82.8833 181.891 80.1342 181.795 77.4528C181.752 76.1193 181.675 74.781 181.541 73.5248C181.48 72.9349 181.384 72.3492 181.253 71.771C181.229 71.6357 181.19 71.5343 181.162 71.4231C181.133 71.312 181.104 71.2734 181.056 71.1284L180.691 70.2153C179.688 67.7706 178.56 65.3065 177.408 62.8522L173.923 55.4891L178.704 53.0588Z" fill="#E4897B"/>
<path id="Path_25" d="M181.987 84.7531L180.758 87.0673L184.685 88.1689C184.685 88.1689 185.434 86.3088 184.541 84.84L181.987 84.7531Z" fill="#E4897B"/>
<path id="Path_26" d="M179.256 90.401L182.866 90.6909L184.685 88.1689L180.758 87.0673L179.256 90.401V90.401Z" fill="#E4897B"/>
<path id="Path_27" d="M162.178 36.3614C162.125 36.6465 161.928 36.8445 161.746 36.8059C161.563 36.7672 161.462 36.5112 161.52 36.231C161.578 35.9507 161.77 35.7478 161.952 35.7865C162.134 35.8251 162.24 36.0812 162.178 36.3614Z" fill="#263238"/>
<path id="Path_28" d="M161.957 36.8445C161.45 37.635 160.838 38.3519 160.138 38.9752C160.468 39.3294 160.937 39.5201 161.419 39.497L161.957 36.8445Z" fill="#DE5753"/>
<path id="Path_29" d="M163.512 35.0134C163.467 35.0122 163.424 34.9932 163.392 34.9603C163.112 34.6383 162.697 34.4696 162.274 34.5061C162.191 34.5069 162.121 34.4478 162.107 34.3664C162.092 34.285 162.139 34.2051 162.216 34.1776C162.758 34.1084 163.299 34.317 163.656 34.7332C163.72 34.7989 163.72 34.9042 163.656 34.9699C163.617 35.0058 163.564 35.0218 163.512 35.0134V35.0134Z" fill="#263238"/>
<path id="Path_30" d="M170.117 40.3087C169.613 42.908 169.109 47.6621 170.914 49.3966C170.914 49.3966 170.208 52.0298 165.413 52.0298C160.133 52.0298 162.898 49.3966 162.898 49.3966C165.778 48.7057 165.696 46.5557 165.197 44.541L170.117 40.3087Z" fill="#E4897B"/>
<path id="Path_31" d="M171.638 51.0345C172.018 49.7638 172.435 48.3095 171.571 47.8506C170.611 47.3674 165.394 46.836 163.594 47.7781C161.794 48.7202 162.307 51.305 162.307 51.305L171.638 51.0345Z" fill="#263238"/>
<path id="Shape_3" fill-rule="evenodd" clip-rule="evenodd" d="M181.862 171.393C182.101 171.615 182.406 171.714 182.707 171.666C183.017 171.664 183.326 171.624 183.629 171.547C183.661 171.54 183.686 171.511 183.691 171.473C183.696 171.434 183.683 171.395 183.658 171.37C183.657 171.37 183.655 171.368 183.653 171.367C183.571 171.302 182.633 170.554 182.126 170.687C182.014 170.716 181.918 170.801 181.862 170.921C181.777 171.062 181.777 171.252 181.862 171.393ZM182.165 170.87H182.266V170.881C182.674 170.949 183.064 171.124 183.408 171.393C182.88 171.496 182.16 171.496 182.011 171.257C181.982 171.234 181.934 171.165 182.011 171.006C182.043 170.936 182.099 170.886 182.165 170.87Z" fill="#1A87DD"/>
<path id="Shape_4" fill-rule="evenodd" clip-rule="evenodd" d="M183.571 171.429H183.61C183.619 171.43 183.629 171.428 183.638 171.424C183.666 171.409 183.681 171.378 183.677 171.347C183.677 171.303 183.605 170.279 183.197 169.941C183.097 169.859 182.969 169.821 182.842 169.835C182.711 169.834 182.598 169.928 182.573 170.057C182.501 170.463 183.206 171.226 183.571 171.429ZM182.88 169.98H182.899L182.88 169.989C182.962 169.978 183.045 170.001 183.11 170.052C183.355 170.373 183.499 170.76 183.523 171.163C183.163 170.888 182.712 170.303 182.755 170.067C182.755 170.066 182.756 170.064 182.756 170.063C182.761 170.04 182.775 169.98 182.88 169.98Z" fill="#1A87DD"/>
<path id="Shape_5" fill-rule="evenodd" clip-rule="evenodd" d="M160.498 171.355C160.646 171.594 161.083 171.668 161.534 171.668C161.895 171.668 162.255 171.628 162.61 171.549C162.644 171.542 162.671 171.51 162.677 171.469C162.682 171.429 162.667 171.389 162.638 171.366C162.637 171.365 162.634 171.364 162.631 171.361C162.512 171.284 161.33 170.507 160.766 170.689C160.654 170.72 160.556 170.804 160.498 170.923C160.421 171.052 160.421 171.225 160.498 171.355ZM160.814 170.86C160.867 170.851 160.92 170.851 160.973 170.86V170.871C161.46 170.933 161.933 171.107 162.365 171.384C161.702 171.492 160.81 171.475 160.651 171.213C160.613 171.179 160.589 171.122 160.651 170.997C160.687 170.926 160.746 170.876 160.814 170.86Z" fill="#1A87DD"/>
<path id="Shape_6" fill-rule="evenodd" clip-rule="evenodd" d="M162.566 171.429H162.6C162.622 171.437 162.647 171.435 162.667 171.424C162.692 171.407 162.705 171.377 162.701 171.347C162.701 171.346 162.701 171.344 162.7 171.343C162.692 171.26 162.595 170.338 162.154 169.98C162.023 169.861 161.847 169.808 161.674 169.835C161.443 169.859 161.362 169.975 161.362 170.071C161.299 170.463 162.139 171.241 162.566 171.429ZM161.688 169.98H161.741L161.76 169.989C161.85 169.995 161.936 170.031 162.005 170.091C162.275 170.395 162.443 170.777 162.485 171.183C162.062 170.922 161.486 170.318 161.525 170.076C161.525 170.075 161.525 170.074 161.526 170.073C161.531 170.049 161.547 169.98 161.688 169.98Z" fill="#1A87DD"/>
<path id="Path_32" d="M166.478 171.342H162.95L162.6 163.124H166.128L166.478 171.342V171.342Z" fill="#E4897B"/>
<path id="Path_33" d="M187.651 171.342H184.123L182.352 163.124H185.875L187.651 171.342V171.342Z" fill="#E4897B"/>
<path id="Path_34" d="M183.874 170.931H187.834C187.979 170.932 188.105 171.035 188.136 171.178L188.832 174.333C188.864 174.488 188.824 174.65 188.723 174.773C188.622 174.895 188.472 174.964 188.314 174.961C186.931 174.937 186.259 174.855 184.517 174.855C183.446 174.855 181.238 174.97 179.755 174.97C178.272 174.97 178.085 173.521 178.69 173.362C181.406 172.763 182.429 171.936 183.298 171.154C183.455 171.01 183.661 170.931 183.874 170.931V170.931Z" fill="#263238"/>
<path id="Path_35" d="M162.974 170.931H166.814C166.96 170.932 167.085 171.035 167.117 171.178L167.813 174.333C167.846 174.487 167.808 174.648 167.709 174.771C167.61 174.893 167.461 174.963 167.304 174.961C165.917 174.937 163.91 174.855 162.163 174.855C160.123 174.855 158.357 174.97 155.962 174.97C154.522 174.97 154.114 173.521 154.718 173.362C157.478 172.753 159.73 172.69 162.115 171.212C162.369 171.038 162.667 170.941 162.974 170.931V170.931Z" fill="#263238"/>
<path id="Path_36" d="M161.28 55.6292C158.331 55.3992 155.397 55.0073 152.491 54.4551C151.051 54.1749 149.582 53.8609 148.123 53.4647C146.628 53.0794 145.159 52.5952 143.726 52.0153C143.357 51.8606 142.982 51.6915 142.613 51.5321C142.197 51.3258 141.796 51.0901 141.413 50.8267C140.722 50.3677 140.126 49.8894 139.536 49.4159C138.36 48.4497 137.27 47.4834 136.176 46.4929C134.03 44.4927 131.995 42.4249 130.032 40.2507L131.798 38.265L138.763 43.3042C139.91 44.1352 141.072 44.9517 142.214 45.7199C142.781 46.1016 143.362 46.4591 143.894 46.7635C144.117 46.8914 144.348 47.0044 144.586 47.1017C144.869 47.2128 145.157 47.3239 145.459 47.4302C148.053 48.2343 150.706 48.832 153.394 49.2179C156.134 49.6527 158.966 50.0102 161.702 50.3001L161.28 55.6292Z" fill="#E4897B"/>
<path id="Path_37" d="M177.226 50.1986C180.533 50.962 183.874 60.6877 183.874 60.6877L177.072 65.6013C177.072 65.6013 175.152 61.0694 173.299 57.1076C171.36 52.9574 173.846 49.4208 177.226 50.1986Z" fill="#1A87DD"/>
<path id="Path_38" opacity="0.4" d="M177.226 50.1986C180.533 50.962 183.874 60.6877 183.874 60.6877L177.072 65.6013C177.072 65.6013 175.152 61.0694 173.299 57.1076C171.36 52.9574 173.846 49.4208 177.226 50.1986Z" fill="black"/>
<path id="Path_39" d="M175.32 55.5132L173.971 58.5522C175.368 61.5863 176.645 64.5915 176.986 65.3935C176.938 61.8037 176.261 57.3492 175.32 55.5132Z" fill="#1A87DD"/>
<path id="Path_40" opacity="0.6" d="M175.32 55.5132L173.971 58.5522C175.368 61.5863 176.645 64.5915 176.986 65.3935C176.938 61.8037 176.261 57.3492 175.32 55.5132Z" fill="black"/>
<path id="Path_41" d="M157.474 50.3822C157.474 50.3822 153.72 54.6484 157.262 81.0619H176.122C176.256 78.163 174.437 63.9296 177.226 50.1986C175.141 49.7946 173.033 49.5267 170.914 49.3966C168.244 49.2419 165.567 49.2419 162.898 49.3966C161.067 49.5823 159.253 49.9118 157.474 50.3822Z" fill="#1A87DD"/>
<path id="Path_42" opacity="0.4" d="M157.474 50.3822C157.474 50.3822 153.72 54.6484 157.262 81.0619H176.122C176.256 78.163 174.437 63.9296 177.226 50.1986C175.141 49.7946 173.033 49.5267 170.914 49.3966C168.244 49.2419 165.567 49.2419 162.898 49.3966C161.067 49.5823 159.253 49.9118 157.474 50.3822Z" fill="black"/>
<path id="Path_43" d="M156.077 55.5132C155.952 56.5133 155.856 57.697 155.794 59.0933C157.656 58.5307 159.426 57.6938 161.045 56.61L156.077 55.5132Z" fill="#1A87DD"/>
<path id="Path_44" opacity="0.6" d="M156.077 55.5132C155.952 56.5133 155.856 57.697 155.794 59.0933C157.656 58.5307 159.426 57.6938 161.045 56.61L156.077 55.5132Z" fill="black"/>
<path id="Path_45" d="M164.16 56.0447C161.635 58.2961 151.997 58.069 151.997 58.069L151.68 48.6767C154.935 49.1434 158.218 49.3823 161.506 49.3918C166.877 49.2807 166.915 53.5613 164.16 56.0447Z" fill="#1A87DD"/>
<path id="Path_46" opacity="0.4" d="M164.16 56.0447C161.635 58.2961 151.997 58.069 151.997 58.069L151.68 48.6767C154.935 49.1434 158.218 49.3823 161.506 49.3918C166.877 49.2807 166.915 53.5613 164.16 56.0447Z" fill="black"/>
<path id="Path_47" d="M131.89 38.2843L129.49 35.4386L126.902 38.3375C126.902 38.3375 128.496 41.0334 131.026 40.6082L131.89 38.2843Z" fill="#E4897B"/>
<path id="Path_48" d="M126.053 32.1194L125.122 35.8348L126.883 38.3181L129.47 35.4386L126.053 32.1194V32.1194Z" fill="#E4897B"/>
<path id="Path_49" d="M162.6 163.129L162.782 167.361H166.31L166.128 163.129H162.6V163.129Z" fill="#CE6F64"/>
<path id="Path_50" d="M185.88 163.129H182.352L183.264 167.361H186.792L185.88 163.129V163.129Z" fill="#CE6F64"/>
<path id="Path_51" d="M164.722 32.8538C161.558 31.4043 160.56 24.964 169.661 26.5729C169.661 26.5729 168.288 28.0996 171.072 29.0659C173.856 30.0322 171.528 35.999 164.722 32.8538Z" fill="#263238"/>
<path id="Path_52" d="M171.595 37.6852C170.688 41.0672 170.333 43.1254 168.235 44.541C165.096 46.6668 161.194 44.227 161.069 40.6179C160.958 37.376 162.461 32.3561 166.085 31.6701C167.711 31.3491 169.387 31.9007 170.51 33.1273C171.634 34.3538 172.045 36.0794 171.595 37.6852Z" fill="#E4897B"/>
<path id="Path_53" d="M169.536 28.2639C171.691 29.4718 174.61 30.1965 174.336 31.9165C173.976 34.0182 176.098 32.704 175.603 35.8299C175.282 37.8736 171.538 44.0675 168.883 43.768C164.918 43.2848 165.422 37.2166 165.408 34.0182C165.398 32.1291 165.312 25.882 169.536 28.2639Z" fill="#263238"/>
<path id="Path_54" d="M164.933 30.9743C163.973 31.2014 162.701 36.7721 166.421 37.2842C170.698 37.8688 164.933 30.9743 164.933 30.9743Z" fill="#263238"/>
<path id="Path_55" d="M165.029 32.9504C163.853 33.0567 161.189 31.6314 161.515 29.4863C161.515 29.4718 163.2 31.9938 165.029 32.9504Z" fill="#263238"/>
<path id="Path_56" d="M166.776 37.7287C166.415 38.5253 165.802 39.1793 165.034 39.5888C164.021 40.1203 163.45 39.3472 163.68 38.323C163.886 37.405 164.664 36.0184 165.706 35.9072C166.747 35.7961 167.194 36.7624 166.776 37.7287Z" fill="#E4897B"/>
<path id="Path_57" d="M172.056 33.8201C173.513 33.1836 174.555 31.8532 174.83 30.2786C174.83 30.2786 176.414 34.7091 172.056 33.8201Z" fill="#263238"/>
<path id="Path_58" d="M176.059 33.7476C175.381 33.2889 174.519 33.2036 173.765 33.5205C173.765 33.5205 175.243 31.5928 176.059 33.7476Z" fill="#263238"/>
<path id="Path_59" d="M163.954 81.0618C163.954 81.0618 167.957 108.186 170.15 118.346C172.55 129.458 181.622 166.544 181.622 166.544H188.078C188.078 166.544 182.102 130.371 180.73 119.336C179.242 107.379 176.122 81.0425 176.122 81.0425L163.954 81.0618Z" fill="#1A87DD"/>
<path id="Path_60" opacity="0.5" d="M163.954 81.0618C163.954 81.0618 167.957 108.186 170.15 118.346C172.55 129.458 181.622 166.544 181.622 166.544H188.078C188.078 166.544 182.102 130.371 180.73 119.336C179.242 107.379 176.122 81.0425 176.122 81.0425L163.954 81.0618Z" fill="white"/>
<path id="Path_61" d="M180.59 164.148C180.562 164.148 181.258 166.646 181.258 166.646H188.525L188.39 164.419L180.59 164.148Z" fill="#1A87DD"/>
<path id="Path_62" opacity="0.1" d="M180.59 164.148C180.562 164.148 181.258 166.646 181.258 166.646H188.525L188.39 164.419L180.59 164.148Z" fill="black"/>
<path id="Path_63" d="M166.483 90.7247C171.11 91.6379 170.621 109.007 170.064 117.94C168.73 111.626 166.776 99.4745 165.442 90.8503C165.764 90.6902 166.132 90.6459 166.483 90.7247V90.7247Z" fill="#1A87DD"/>
<path id="Path_64" opacity="0.4" d="M166.483 90.7247C171.11 91.6379 170.621 109.007 170.064 117.94C168.73 111.626 166.776 99.4745 165.442 90.8503C165.764 90.6902 166.132 90.6459 166.483 90.7247V90.7247Z" fill="white"/>
<path id="Path_65" d="M157.262 81.0618C157.262 81.0618 156.782 107.596 157.162 118.423C157.56 129.681 161.482 166.544 161.482 166.544H167.453C167.453 166.544 167.674 130.338 167.933 119.283C168.226 107.229 169.67 81.0618 169.67 81.0618L157.262 81.0618Z" fill="#1A87DD"/>
<path id="Path_66" opacity="0.5" d="M157.262 81.0618C157.262 81.0618 156.782 107.596 157.162 118.423C157.56 129.681 161.482 166.544 161.482 166.544H167.453C167.453 166.544 167.674 130.338 167.933 119.283C168.226 107.229 169.67 81.0618 169.67 81.0618L157.262 81.0618Z" fill="white"/>
<path id="Path_67" d="M162.72 162.225C162.69 162.225 162.665 162.202 162.662 162.172C161.606 151.968 159.125 127.279 158.822 118.423C158.501 109.384 158.794 89.1013 158.89 83.1007C158.89 83.0687 158.915 83.0427 158.947 83.0427V83.0427C158.98 83.0426 159.007 83.0679 159.01 83.1007C158.914 89.1013 158.621 109.384 158.942 118.419C159.254 127.275 161.736 151.954 162.782 162.158C162.783 162.191 162.758 162.22 162.725 162.225H162.72Z" fill="#1A87DD"/>
<path id="Path_68" opacity="0.4" d="M162.72 162.225C162.69 162.225 162.665 162.202 162.662 162.172C161.606 151.968 159.125 127.279 158.822 118.423C158.501 109.384 158.794 89.1013 158.89 83.1007C158.89 83.0687 158.915 83.0427 158.947 83.0427V83.0427C158.98 83.0426 159.007 83.0679 159.01 83.1007C158.914 89.1013 158.621 109.384 158.942 118.419C159.254 127.275 161.736 151.954 162.782 162.158C162.783 162.191 162.758 162.22 162.725 162.225H162.72Z" fill="white"/>
<path id="Path_69" d="M160.32 164.148C160.296 164.148 160.661 166.646 160.661 166.646H167.923L168.12 164.419L160.32 164.148Z" fill="#1A87DD"/>
<path id="Path_70" opacity="0.1" d="M160.32 164.148C160.296 164.148 160.661 166.646 160.661 166.646H167.923L168.12 164.419L160.32 164.148Z" fill="black"/>
</g>
</g>
</svg>
