<svg width="24" height="24" viewBox="0 0 24 24" fill="none" xmlns="http://www.w3.org/2000/svg">
<g opacity="0.01">
<rect width="24" height="24" fill="#F7F9FC"/>
</g>
<path fill-rule="evenodd" clip-rule="evenodd" d="M12.3072 4.5C12.1197 4.5 11.9329 4.50675 11.7484 4.52025C11.5257 4.53675 11.2894 4.731 11.2407 5.06775L11.1694 5.5575C11.0472 6.4005 10.4689 7.02675 9.82618 7.37175C9.72943 7.4235 9.63493 7.479 9.54193 7.536C8.92093 7.92225 8.08918 8.10975 7.29793 7.794L6.83743 7.61025C6.52093 7.48425 6.23518 7.59075 6.10843 7.776C5.89918 8.08275 5.71168 8.406 5.54893 8.74425C5.45143 8.94525 5.50168 9.24525 5.76868 9.456L6.16093 9.76575C6.82843 10.2922 7.08268 11.1045 7.05943 11.8342L7.05718 12L7.05943 12.1658C7.08268 12.8955 6.82843 13.7078 6.16093 14.2343L5.76868 14.544C5.50168 14.7547 5.45143 15.0547 5.54893 15.2557C5.71168 15.594 5.89918 15.9172 6.10843 16.224C6.23518 16.4093 6.52093 16.5157 6.83743 16.3897L7.29793 16.206C8.08918 15.8903 8.92093 16.0785 9.54193 16.464C9.63493 16.521 9.72943 16.5765 9.82618 16.6283C10.4689 16.9733 11.0472 17.5995 11.1694 18.4425L11.2407 18.9323C11.2894 19.269 11.5257 19.4632 11.7484 19.4797C11.9329 19.4932 12.1197 19.5 12.3072 19.5C12.4947 19.5 12.6814 19.4932 12.8659 19.4797C13.0894 19.4632 13.3249 19.269 13.3737 18.9323L13.4449 18.4425C13.5672 17.5995 14.1454 16.9733 14.7882 16.6283C14.8849 16.5765 14.9794 16.521 15.0732 16.464C15.6934 16.0785 16.5252 15.8903 17.3164 16.206L17.7769 16.3897C18.0934 16.5157 18.3792 16.4093 18.5059 16.224C18.7152 15.9172 18.9027 15.5932 19.0654 15.2557C19.1629 15.0547 19.1127 14.7547 18.8457 14.544L18.4534 14.2343C17.7859 13.7078 17.5317 12.8955 17.5549 12.1658L17.5572 12L17.5549 11.8342C17.5317 11.1045 17.7859 10.2922 18.4534 9.76575L18.8457 9.456C19.1127 9.24525 19.1629 8.94525 19.0654 8.74425C18.9027 8.40675 18.7152 8.08275 18.5059 7.776C18.3792 7.59075 18.0934 7.48425 17.7769 7.61025L17.3164 7.794C16.5252 8.10975 15.6934 7.92225 15.0732 7.536C14.9794 7.479 14.8849 7.4235 14.7882 7.37175C14.1454 7.02675 13.5672 6.4005 13.4449 5.5575L13.3737 5.06775C13.3249 4.731 13.0894 4.53675 12.8659 4.52025C12.6814 4.50675 12.4947 4.5 12.3072 4.5ZM11.6389 3.02475C11.8594 3.00825 12.0822 3 12.3072 3C12.5322 3 12.7549 3.00825 12.9754 3.02475C14.0142 3.1005 14.7252 3.9375 14.8579 4.8525L14.9292 5.34225C14.9667 5.60025 15.1602 5.86875 15.4977 6.05025C15.6222 6.117 15.7444 6.1875 15.8637 6.2625C16.1892 6.46425 16.5184 6.49725 16.7607 6.4005L17.2219 6.21675C18.0792 5.87475 19.1577 6.072 19.7442 6.93C19.9954 7.29825 20.2212 7.68675 20.4169 8.09175C20.8692 9.02925 20.4994 10.0628 19.7742 10.6343L19.3827 10.9433C19.1779 11.1045 19.0422 11.406 19.0542 11.7878C19.0564 11.8583 19.0572 11.9288 19.0572 12C19.0572 12.0712 19.0564 12.1417 19.0542 12.2122C19.0422 12.594 19.1779 12.8955 19.3827 13.0568L19.7742 13.3658C20.4994 13.9373 20.8692 14.9707 20.4169 15.9082C20.2212 16.3132 19.9954 16.7017 19.7442 17.07C19.1577 17.928 18.0792 18.1252 17.2219 17.7832L16.7607 17.5995C16.5184 17.5027 16.1892 17.5358 15.8637 17.7375C15.7444 17.8125 15.6222 17.883 15.4977 17.9497C15.1602 18.1313 14.9667 18.3997 14.9292 18.6578L14.8579 19.1475C14.7252 20.0625 14.0142 20.8995 12.9754 20.9753C12.7549 20.9918 12.5322 21 12.3072 21C12.0822 21 11.8594 20.9918 11.6389 20.9753C10.6009 20.8995 9.88918 20.0625 9.75643 19.1475L9.68518 18.6578C9.64768 18.3997 9.45418 18.1313 9.11668 17.9497C8.99218 17.883 8.86993 17.8125 8.75068 17.7375C8.42518 17.5358 8.09593 17.5027 7.85368 17.5995L7.39243 17.7832C6.53518 18.1252 5.45668 17.928 4.87018 17.07C4.61893 16.7017 4.39318 16.3132 4.19818 15.9082C3.74518 14.9707 4.11493 13.9373 4.84018 13.3658L5.23168 13.0568C5.43643 12.8955 5.57218 12.594 5.56018 12.2122C5.55793 12.1417 5.55718 12.0712 5.55718 12C5.55718 11.9288 5.55793 11.8583 5.56018 11.7878C5.57218 11.406 5.43643 11.1045 5.23168 10.9433L4.84018 10.6343C4.11493 10.0628 3.74518 9.02925 4.19818 8.09175C4.39318 7.68675 4.61893 7.29825 4.87018 6.93C5.45668 6.072 6.53518 5.87475 7.39243 6.21675L7.85368 6.4005C8.09593 6.49725 8.42518 6.46425 8.75068 6.2625C8.86993 6.1875 8.99218 6.117 9.11668 6.05025C9.45418 5.86875 9.64768 5.60025 9.68518 5.34225L9.75643 4.8525C9.88918 3.9375 10.6009 3.1005 11.6389 3.02475ZM12.3072 9.75C11.0644 9.75 10.0572 10.7572 10.0572 12C10.0572 13.2428 11.0644 14.25 12.3072 14.25C13.5499 14.25 14.5572 13.2428 14.5572 12C14.5572 10.7572 13.5499 9.75 12.3072 9.75ZM8.55718 12C8.55718 9.92925 10.2357 8.25 12.3072 8.25C14.3779 8.25 16.0572 9.92925 16.0572 12C16.0572 14.0708 14.3779 15.75 12.3072 15.75C10.2357 15.75 8.55718 14.0708 8.55718 12Z" fill="black"/>
</svg>
