<svg width="33" height="11" viewBox="0 0 33 11" fill="none" xmlns="http://www.w3.org/2000/svg">
<path fill-rule="evenodd" clip-rule="evenodd" d="M16.619 3.31698C16.601 4.76198 17.907 5.56898 18.891 6.04898C19.902 6.54098 20.242 6.85698 20.238 7.29698C20.23 7.97098 19.431 8.26798 18.683 8.27898C17.7547 8.29927 16.8368 8.08097 16.017 7.64498L15.547 9.84498C16.467 10.2034 17.4466 10.3842 18.434 10.378C21.161 10.378 22.945 9.03198 22.955 6.94498C22.9616 5.35886 21.6467 4.66831 20.5958 4.11642C19.8916 3.7466 19.306 3.43904 19.316 2.96598C19.325 2.60698 19.667 2.22398 20.416 2.12598C21.2942 2.04182 22.1788 2.19698 22.976 2.57498L23.432 0.446977C22.6551 0.154566 21.8321 0.00351898 21.002 0.000976562C18.435 0.000976562 16.63 1.36498 16.615 3.31898L16.619 3.31698ZM27.815 0.184977C27.3326 0.183061 26.8973 0.474297 26.715 0.920977L22.815 10.221H25.54L26.082 8.72098H29.412L29.727 10.221H32.127L30.027 0.183977H27.822L27.815 0.184977ZM28.989 6.66798L28.203 2.89598L28.2 2.89398L26.835 6.66798H28.989ZM13.315 0.182977L11.167 10.22H13.767L15.914 0.182977H13.315ZM6.773 7.01498L9.473 0.182977H9.474H12.2L7.994 10.22H5.25L3.179 2.20998C3.14105 1.82856 2.90729 1.4944 2.562 1.32798C1.74705 0.937345 0.886338 0.650441 0 0.473977L0.062 0.182977H4.478C5.07578 0.180736 5.58562 0.615369 5.678 1.20598L6.773 7.01498Z" fill="white"/>
</svg>
