<svg width="183" height="119" viewBox="0 0 183 119" fill="none" xmlns="http://www.w3.org/2000/svg">
<g opacity="0.101761">
<path fill-rule="evenodd" clip-rule="evenodd" d="M204.847 40.9022C204.625 58.7259 220.723 68.6801 232.852 74.6008C245.314 80.6695 249.505 84.5673 249.455 89.9946C249.357 98.3082 239.508 101.972 230.288 102.107C218.846 102.358 207.531 99.665 197.427 94.2871L191.634 121.424C202.974 125.844 215.049 128.075 227.219 127.998C260.832 127.998 282.822 111.395 282.945 85.6528C283.026 66.0883 266.819 57.5705 253.866 50.7631C245.186 46.2014 237.967 42.4077 238.091 36.5726C238.202 32.1445 242.417 27.4202 251.649 26.2114C262.474 25.1734 273.378 27.0872 283.204 31.7497L288.825 5.50131C279.248 1.89449 269.104 0.0313602 258.872 0C227.231 0 204.983 16.8246 204.798 40.9268L204.847 40.9022ZM342.85 2.2696C336.903 2.24597 331.538 5.8383 329.291 11.348L281.22 126.062H314.808L321.489 107.559H362.535L366.417 126.062H396L370.115 2.25727H342.936L342.85 2.2696ZM357.321 82.236L347.632 35.7092L347.595 35.6845L330.77 82.236H357.321ZM164.122 2.24493L137.645 126.049H169.693L196.157 2.24493H164.122ZM83.4845 86.5162L116.765 2.24493H116.777H150.378L98.5347 126.049H64.7119L39.1846 27.2475C38.7168 22.5428 35.8355 18.421 31.5794 16.3683C21.5343 11.5499 10.9251 8.011 0 5.83435L0.764217 2.24493H55.1962C62.5645 2.21729 68.8488 7.5784 69.9875 14.8634L83.4845 86.5162Z" fill="white"/>
</g>
</svg>
