<svg width="35" height="26" viewBox="0 0 35 26" fill="none" xmlns="http://www.w3.org/2000/svg">
<rect x="1" y="1" width="33" height="24" rx="5" fill="#F0C753"/>
<rect x="24" y="26" width="12" height="26" rx="3" transform="rotate(180 24 26)" fill="#F7CB6B"/>
<rect x="23.5" y="25.5" width="11" height="25" rx="2.5" transform="rotate(180 23.5 25.5)" stroke="#208CE0"/>
<path d="M3 18C1.34315 18 0 16.6569 0 15L0 11C0 9.34315 1.34315 8 3 8H12C13.6569 8 15 9.34315 15 11V15C15 16.6569 13.6569 18 12 18H3Z" fill="#F7CB6B"/>
<path fill-rule="evenodd" clip-rule="evenodd" d="M0.5 17L0.5 9C0.5 8.72386 0.723858 8.5 1 8.5H12C13.3807 8.5 14.5 9.61929 14.5 11V15C14.5 15.663 14.2366 16.2989 13.7678 16.7678C13.2989 17.2366 12.663 17.5 12 17.5H1C0.723858 17.5 0.5 17.2761 0.5 17Z" stroke="#208CE0"/>
<path d="M34 8C34.5523 8 35 8.44772 35 9V17C35 17.5523 34.5523 18 34 18H23C21.3431 18 20 16.6569 20 15V11C20 9.34315 21.3431 8 23 8H34Z" fill="#F7CB6B"/>
<path fill-rule="evenodd" clip-rule="evenodd" d="M34.5 9V17C34.5 17.2761 34.2761 17.5 34 17.5H23C21.6193 17.5 20.5 16.3807 20.5 15V11C20.5 10.337 20.7634 9.70107 21.2322 9.23223C21.7011 8.76339 22.337 8.5 23 8.5H34C34.2761 8.5 34.5 8.72386 34.5 9Z" stroke="#208CE0"/>
</svg>
